<?xml version="1.0" standalone="no"?>
<!DOCTYPE svg PUBLIC "-//W3C//DTD SVG 20010904//EN"
 "http://www.w3.org/TR/2001/REC-SVG-20010904/DTD/svg10.dtd">
<svg version="1.0" xmlns="http://www.w3.org/2000/svg"
 width="326.000000pt" height="326.000000pt" viewBox="0 0 326.000000 326.000000"
 preserveAspectRatio="xMidYMid meet">
<metadata>
Created by potrace 1.14, written by Peter Selinger 2001-2017
</metadata>
<g transform="translate(0.000000,326.000000) scale(0.100000,-0.100000)"
fill="#000000" stroke="none">
<path d="M2840 3002 c-31 -3 -43 -14 -105 -94 -38 -50 -75 -96 -80 -102 -6 -6
-21 -27 -35 -46 -13 -19 -30 -42 -37 -50 -8 -8 -93 -118 -190 -245 -97 -126
-190 -247 -206 -268 -24 -29 -28 -40 -19 -49 7 -7 13 -9 13 -5 1 4 2 10 3 15
4 23 18 33 32 21 9 -7 14 -8 14 -1 0 6 -5 14 -11 17 -7 5 -4 13 7 26 9 10 21
16 27 12 6 -4 8 0 5 9 -5 11 0 14 18 12 16 -1 24 2 21 9 -3 7 -10 11 -17 9
-11 -3 -11 0 0 12 14 18 25 21 14 5 -4 -7 0 -9 12 -5 11 3 25 2 32 -3 10 -6
10 -10 -3 -21 -13 -11 -15 -10 -9 4 3 9 1 16 -5 16 -12 0 -15 -32 -4 -43 3 -4
15 0 25 10 10 9 18 13 18 9 0 -4 8 -2 19 3 11 6 17 19 16 33 -1 13 0 15 2 5 2
-9 9 -15 14 -12 20 13 21 -27 0 -41 -11 -8 -21 -20 -21 -25 0 -6 10 -3 22 5
12 9 29 16 38 16 8 -1 0 -7 -18 -15 -28 -12 -31 -17 -23 -33 6 -11 7 -22 4
-26 -3 -3 -2 -6 4 -6 6 0 21 15 34 34 22 33 39 38 39 14 0 -6 -3 -9 -6 -5 -4
3 -13 -1 -21 -9 -20 -20 -8 -31 14 -13 14 12 16 12 8 0 -6 -11 -4 -13 9 -8 10
4 15 3 11 -3 -3 -5 -20 -8 -36 -6 -34 4 -52 -20 -28 -35 21 -13 29 -11 23 6
-4 8 -1 15 6 15 6 0 8 -4 5 -10 -3 -5 -1 -10 4 -10 6 0 11 6 12 13 0 6 5 2 11
-10 6 -13 18 -23 26 -23 13 0 13 3 -1 18 -20 22 -21 32 -5 32 6 0 8 -3 5 -7
-4 -3 0 -15 9 -24 15 -17 15 -19 0 -25 -9 -3 -13 -11 -9 -17 3 -5 2 -7 -4 -4
-9 6 -40 -37 -42 -58 -1 -5 -5 -10 -11 -10 -5 0 -9 -3 -7 -6 1 -3 -4 -13 -12
-23 -10 -12 -17 -14 -27 -5 -8 6 -14 16 -14 22 0 7 4 7 12 -1 7 -7 17 -12 22
-12 6 0 4 5 -4 10 -8 5 -10 10 -4 10 15 0 13 28 -2 34 -8 3 -16 1 -19 -4 -4
-6 -1 -10 4 -10 6 0 11 -5 11 -12 0 -6 -3 -8 -6 -5 -4 3 -16 2 -28 -4 -20 -10
-20 -10 -2 5 11 9 15 16 10 16 -6 0 -16 -6 -24 -12 -12 -11 -12 -10 -2 3 6 9
9 19 5 23 -4 4 1 4 12 0 17 -5 17 -4 -3 10 -13 10 -19 22 -15 29 4 7 -2 5 -13
-3 -18 -14 -18 -14 -4 4 13 18 13 19 0 11 -13 -8 -13 -7 0 10 12 15 12 17 1
10 -10 -6 -12 -4 -6 6 5 8 -1 6 -12 -4 -20 -17 -23 -17 -52 -2 -17 8 -31 21
-31 28 0 8 -3 7 -9 -3 -6 -8 -7 -18 -5 -22 3 -4 1 -8 -4 -8 -6 0 -13 7 -16 16
-8 20 -8 25 2 21 4 -1 8 2 10 7 1 6 -4 11 -13 12 -8 1 -12 -2 -9 -8 5 -7 2 -8
-5 -3 -10 6 -11 3 -1 -15 11 -20 10 -21 -9 -10 -12 6 -21 8 -21 4 0 -3 -6 -1
-14 5 -11 10 -17 7 -30 -11 -9 -12 -16 -27 -16 -33 0 -5 30 -88 67 -183 54
-140 70 -172 84 -170 10 2 97 107 194 233 97 127 186 244 199 260 50 63 153
196 211 271 33 42 65 82 70 88 6 6 22 27 35 46 13 19 27 37 30 40 3 3 25 32
50 65 59 79 54 73 100 131 39 50 49 85 32 112 -6 9 -51 13 -163 15 -85 1 -170
1 -189 -1z m-330 -522 c0 -5 -5 -10 -11 -10 -5 0 -7 5 -4 10 3 6 8 10 11 10 2
0 4 -4 4 -10z m90 -36 c0 -8 -19 -13 -24 -6 -3 5 1 9 9 9 8 0 15 -2 15 -3z
m-170 -8 c0 -2 -8 -10 -17 -17 -16 -13 -17 -12 -4 4 13 16 21 21 21 13z m51
-11 c3 2 5 -11 5 -30 0 -18 -3 -32 -7 -29 -4 2 -6 12 -4 22 1 9 -5 26 -14 37
-14 17 -14 18 0 7 9 -6 18 -10 20 -7z m49 1 c0 -2 -7 -7 -16 -10 -8 -3 -12 -2
-9 4 6 10 25 14 25 6z m-81 -19 c8 -10 7 -14 -2 -14 -8 0 -14 6 -14 14 0 7 1
13 2 13 2 0 8 -6 14 -13z m-71 -22 c-6 -14 -13 -23 -15 -21 -5 5 15 46 22 46
3 0 -1 -11 -7 -25z m212 15 c0 -5 -5 -10 -11 -10 -5 0 -7 5 -4 10 3 6 8 10 11
10 2 0 4 -4 4 -10z m37 -5 c0 -8 -4 -12 -9 -9 -5 3 -6 10 -3 15 9 13 12 11 12
-6z m-215 -2 c-6 -2 -9 -10 -6 -15 4 -7 2 -8 -5 -4 -13 9 -5 26 12 25 9 0 8
-2 -1 -6z m41 -44 c-4 -15 -8 -17 -14 -8 -6 11 4 28 18 29 0 0 -1 -9 -4 -21z
m210 -4 c-7 -21 -12 -19 -10 4 0 11 5 18 9 15 4 -3 5 -11 1 -19z m-240 -14 c5
-5 4 -12 -4 -16 -8 -5 -10 -4 -5 3 7 12 -5 16 -31 13 -7 -1 -13 3 -13 8 0 11
39 6 53 -8z m124 2 c0 -9 -4 -10 -12 -3 -7 6 -20 8 -29 4 -9 -3 -16 -2 -16 3
0 5 13 9 28 9 17 0 29 -5 29 -13z m-192 -42 c-6 -5 -25 10 -25 20 0 5 6 4 14
-3 8 -7 12 -15 11 -17z m20 19 c3 -6 -1 -7 -9 -4 -18 7 -21 14 -7 14 6 0 13
-4 16 -10z m72 -17 c1 -22 -1 -24 -8 -10 -6 9 -7 22 -4 27 9 14 10 13 12 -17z
m33 7 c0 -5 -4 -10 -10 -10 -5 0 -10 5 -10 10 0 6 5 10 10 10 6 0 10 -4 10
-10z m66 -5 c-1 -8 -5 -17 -8 -21 -5 -4 -4 16 1 34 3 9 9 -1 7 -13z m75 -8
c-10 -9 -11 -8 -5 6 3 10 9 15 12 12 3 -3 0 -11 -7 -18z m-241 -7 c0 -5 -5
-10 -11 -10 -5 0 -7 5 -4 10 3 6 8 10 11 10 2 0 4 -4 4 -10z m178 -20 c-7 -10
-14 -17 -17 -15 -4 4 18 35 25 35 2 0 -1 -9 -8 -20z m-68 -1 c0 -4 -4 -11 -10
-14 -5 -3 -10 -1 -10 5 0 6 -5 8 -12 4 -6 -4 -8 -3 -5 3 7 11 37 13 37 2z
m145 2 c-3 -2 -16 -6 -28 -8 -15 -2 -18 0 -9 5 14 9 45 12 37 3z m-105 -21 c0
-5 -7 -7 -15 -4 -11 5 -14 1 -9 -12 5 -15 4 -16 -4 -4 -6 8 -8 18 -6 22 7 11
34 10 34 -2z m18 -27 c-2 -9 -14 -18 -28 -20 -18 -2 -21 -1 -10 6 8 5 18 7 22
5 4 -3 8 2 8 10 0 9 3 16 6 16 3 0 4 -7 2 -17z m-108 -8 c-7 -9 -15 -13 -19
-10 -3 3 1 10 9 15 21 14 24 12 10 -5z m126 -22 c0 -10 5 -17 12 -15 8 1 11
-2 7 -9 -5 -8 -12 -6 -22 4 -9 8 -12 20 -9 26 10 16 14 14 12 -6z m39 7 c-3
-5 -12 -10 -18 -10 -7 0 -6 4 3 10 19 12 23 12 15 0z m-51 -46 c3 -8 2 -12 -4
-9 -6 3 -10 10 -10 16 0 14 7 11 14 -7z m-384 -18 c0 -2 3 -13 7 -23 6 -16 5
-17 -12 -3 -15 12 -17 12 -10 1 6 -10 4 -12 -5 -6 -9 5 -11 4 -6 -4 4 -6 12
-8 18 -5 6 4 8 -1 4 -12 -3 -11 -1 -26 5 -34 8 -11 9 -9 3 10 -6 22 -5 23 9
11 12 -10 14 -18 7 -31 -12 -23 -13 -40 -1 -22 6 10 15 6 35 -18 14 -17 26
-27 26 -21 0 5 -4 13 -10 16 -5 3 -10 11 -10 17 0 6 8 4 18 -5 10 -10 21 -15
24 -12 3 3 8 -2 12 -11 4 -12 2 -15 -9 -10 -8 3 -15 1 -15 -4 0 -6 7 -10 15
-10 21 0 51 -48 38 -61 -7 -7 -13 -2 -17 15 -3 14 -13 26 -20 26 -8 0 -27 14
-43 30 -29 31 -43 37 -43 19 0 -5 5 -7 10 -4 6 3 10 2 10 -4 0 -6 16 -21 36
-35 20 -13 41 -34 48 -47 10 -19 35 -25 29 -7 -2 5 2 8 9 8 9 0 9 3 0 12 -21
21 -13 32 10 12 19 -15 20 -16 9 -1 -8 10 -9 17 -3 17 6 0 14 -5 18 -11 4 -8
10 -6 17 6 7 12 5 20 -4 27 -10 6 -7 7 9 3 24 -7 25 -5 16 19 -5 14 -8 14 -21
1 -8 -8 -20 -15 -26 -15 -7 1 -1 10 12 21 22 18 25 18 41 4 19 -17 16 -56 -4
-52 -6 1 -10 -4 -9 -10 2 -7 -2 -13 -9 -13 -6 0 -8 -3 -5 -6 8 -9 -54 -80 -66
-76 -5 2 -7 -4 -4 -12 3 -8 -1 -17 -9 -20 -8 -3 -14 -13 -14 -21 0 -9 -4 -13
-10 -10 -5 3 -10 0 -11 -7 0 -12 -17 21 -23 47 -6 20 -18 51 -31 75 -12 23
-12 27 3 36 14 10 13 13 -11 29 -15 9 -27 21 -27 25 0 5 -5 21 -12 37 -6 15
-12 33 -14 40 -1 6 -6 19 -12 29 -7 12 -6 23 1 36 11 16 27 25 27 14z m40 -15
c32 -8 45 -5 42 7 -2 9 9 6 29 -9 25 -17 35 -20 49 -11 14 9 17 7 16 -11 -1
-13 5 -22 14 -22 8 0 15 -9 15 -20 0 -11 -7 -20 -15 -20 -8 0 -18 -4 -22 -10
-4 -5 -6 6 -5 25 2 30 -1 35 -21 35 -13 0 -31 9 -39 20 -13 17 -15 17 -10 2 5
-13 0 -20 -19 -27 -30 -12 -37 -12 -31 -2 3 4 1 16 -3 26 -6 17 -7 18 -13 3
-3 -9 -2 -17 4 -17 6 0 7 -5 4 -10 -3 -6 1 -13 10 -16 13 -5 13 -9 3 -23 -12
-14 -11 -15 7 -1 11 7 26 21 33 29 10 13 12 13 12 -1 0 -9 -5 -20 -10 -23 -6
-4 -8 -11 -4 -16 3 -6 12 -5 22 3 13 11 15 11 9 -4 -5 -13 -1 -16 19 -12 30 5
30 2 2 -22 -12 -10 -18 -13 -14 -6 6 11 0 14 -20 11 -4 0 -10 5 -14 11 -4 7
-18 13 -31 14 -14 0 -24 7 -24 16 0 8 -5 22 -10 30 -11 17 -17 78 -6 64 3 -5
13 -11 21 -13z m108 -55 c10 18 11 18 9 -2 0 -11 -6 -25 -13 -31 -8 -8 -16 -2
-28 25 -17 37 -17 37 2 13 19 -23 20 -23 30 -5z m52 -55 c0 -5 -7 -14 -16 -22
-14 -11 -13 -14 7 -30 l22 -17 -34 2 c-55 3 -62 13 -32 46 25 29 53 40 53 21z
m-155 -71 c3 -5 1 -10 -4 -10 -6 0 -11 5 -11 10 0 6 2 10 4 10 3 0 8 -4 11
-10z"/>
<path d="M2235 1910 c-3 -5 -1 -10 4 -10 6 0 11 5 11 10 0 6 -2 10 -4 10 -3 0
-8 -4 -11 -10z"/>
<path d="M2359 1888 c-17 -15 -43 -48 -38 -48 2 0 17 14 32 30 30 31 32 40 6
18z"/>
<path d="M2230 1881 c8 -5 18 -7 23 -4 12 7 4 -30 -8 -40 -6 -5 -4 -7 5 -4 8
2 15 14 15 27 0 17 -7 24 -25 27 -18 2 -21 1 -10 -6z"/>
<path d="M2284 1834 c-18 -14 -18 -15 4 -4 12 6 22 13 22 15 0 8 -5 6 -26 -11z"/>
<path d="M2268 1803 c6 -2 18 -2 25 0 6 3 1 5 -13 5 -14 0 -19 -2 -12 -5z"/>
<path d="M2227 2089 c7 -7 15 -10 18 -7 3 3 -2 9 -12 12 -14 6 -15 5 -6 -5z"/>
<path d="M2357 2053 c-10 -9 -9 -23 1 -23 5 0 9 7 9 15 0 17 -1 18 -10 8z"/>
<path d="M2331 1976 c-19 -20 -20 -24 -6 -30 10 -3 14 -2 10 5 -4 6 1 19 11
30 25 28 12 24 -15 -5z"/>
<path d="M1293 2983 c-7 -2 -13 -11 -13 -18 0 -7 -20 -56 -45 -109 -25 -53
-45 -99 -45 -102 0 -3 -20 -48 -45 -101 -25 -52 -45 -97 -45 -99 0 -3 -18 -43
-40 -90 -22 -47 -40 -87 -40 -89 0 -2 -16 -39 -36 -82 -20 -43 -49 -106 -65
-141 -16 -35 -29 -65 -29 -67 0 -2 -13 -32 -29 -67 -16 -35 -82 -180 -146
-323 -64 -143 -127 -282 -140 -310 -24 -55 -57 -127 -85 -190 -10 -22 -48
-107 -85 -190 -37 -82 -84 -188 -105 -235 -21 -47 -54 -120 -74 -163 -20 -43
-36 -80 -36 -82 0 -3 -49 -109 -105 -229 -7 -16 -11 -36 -8 -45 13 -37 32 -41
223 -41 212 0 203 -3 238 85 11 28 36 85 56 128 20 43 36 80 36 83 0 2 21 50
46 106 68 154 68 155 119 273 26 61 61 139 77 175 17 36 38 85 48 110 10 25
34 79 53 120 19 41 47 104 62 140 15 36 40 93 56 128 16 35 29 65 29 67 0 3
11 28 24 57 13 29 56 127 96 218 40 91 88 198 106 238 19 41 34 76 34 78 0 2
9 23 19 47 11 23 34 74 51 112 27 59 33 67 40 50 12 -29 122 -310 238 -610
157 -407 193 -498 198 -507 3 -5 11 -5 19 -1 22 13 285 354 285 370 0 8 -9 35
-19 61 -27 64 -80 201 -243 627 -16 44 -36 94 -43 110 -7 17 -31 82 -55 145
-23 63 -48 129 -55 145 -7 17 -28 68 -46 115 -18 47 -39 91 -47 98 -12 9 -70
12 -216 11 -111 0 -207 -3 -213 -6z m612 -622 c3 -5 2 -12 -3 -15 -5 -3 -9 1
-9 9 0 17 3 19 12 6z m-95 -21 c0 -5 -2 -10 -4 -10 -3 0 -8 5 -11 10 -3 6 -1
10 4 10 6 0 11 -4 11 -10z m-64 -22 c3 -4 -1 -5 -10 -4 -8 1 -18 5 -22 8 -3 4
1 5 10 4 8 -1 18 -5 22 -8z m155 -31 c-10 -9 -11 -8 -5 6 3 10 9 15 12 12 3
-3 0 -11 -7 -18z m-231 -7 c0 -5 -2 -10 -4 -10 -3 0 -8 5 -11 10 -3 6 -1 10 4
10 6 0 11 -4 11 -10z m80 -20 c0 -5 -5 -10 -11 -10 -5 0 -7 5 -4 10 3 6 8 10
11 10 2 0 4 -4 4 -10z m71 -7 c13 -16 12 -17 -3 -4 -10 7 -18 15 -18 17 0 8 8
3 21 -13z m59 12 c0 -2 -6 -8 -13 -14 -10 -8 -14 -7 -14 2 0 8 6 14 14 14 7 0
13 -1 13 -2z m110 -4 c0 -6 -4 -12 -8 -15 -5 -3 -9 1 -9 9 0 8 4 15 9 15 4 0
8 -4 8 -9z m-299 -18 c13 -16 12 -17 -3 -4 -10 7 -18 15 -18 17 0 8 8 3 21
-13z m273 -9 c3 -8 2 -12 -4 -9 -6 3 -10 10 -10 16 0 14 7 11 14 -7z m-349
-14 c3 -6 -1 -7 -9 -4 -18 7 -21 14 -7 14 6 0 13 -4 16 -10z m219 1 c3 -5 -1
-11 -9 -14 -9 -4 -12 -1 -8 9 6 16 10 17 17 5z m30 -7 c3 -8 2 -12 -4 -9 -6 3
-10 10 -10 16 0 14 7 11 14 -7z m-174 2 c0 -2 -8 -10 -17 -17 -16 -13 -17 -12
-4 4 13 16 21 21 21 13z m234 -8 c-5 -8 -1 -9 12 -5 18 7 18 7 0 -8 -11 -8
-24 -15 -29 -15 -4 0 -6 -4 -3 -8 3 -5 -4 -16 -15 -25 -10 -9 -19 -12 -19 -7
0 6 6 13 14 16 8 3 13 14 11 24 -3 13 1 17 11 13 8 -3 14 -2 13 3 -2 14 0 24
7 24 3 0 2 -5 -2 -12z m59 -9 c-8 -8 -13 -7 -18 2 -5 8 -4 10 3 5 7 -4 12 -2
12 5 0 7 3 9 7 6 4 -4 2 -12 -4 -18z m-250 -23 c-10 -13 -20 -22 -22 -20 -4 4
29 44 36 44 2 0 -4 -11 -14 -24z m52 14 c-3 -5 -12 -10 -18 -10 -7 0 -6 4 3
10 19 12 23 12 15 0z m195 -16 c0 -2 -7 -4 -15 -4 -8 0 -15 4 -15 10 0 5 7 7
15 4 8 -4 15 -8 15 -10z m-115 -3 c3 -6 -5 -15 -17 -21 -21 -10 -21 -10 -6 3
10 8 15 17 11 20 -3 4 -4 7 0 7 3 0 8 -4 12 -9z m-205 -5 c0 -2 -8 -10 -17
-17 -16 -13 -17 -12 -4 4 13 16 21 21 21 13z m165 -6 c-3 -5 -12 -10 -18 -10
-7 0 -6 4 3 10 19 12 23 12 15 0z m120 1 c3 -5 -1 -16 -9 -24 -8 -8 -12 -18
-8 -22 4 -4 -3 -2 -15 4 -27 14 -31 23 -6 14 11 -4 14 -3 9 6 -4 6 -4 11 1 10
20 -3 27 2 13 11 -9 6 -10 10 -3 10 6 0 14 -4 18 -9z m65 -1 c0 -5 -4 -10 -10
-10 -5 0 -10 5 -10 10 0 6 5 10 10 10 6 0 10 -4 10 -10z m-250 -15 c0 -12 -19
-12 -23 0 -4 9 -1 12 9 8 7 -3 14 -7 14 -8z m-85 -5 c-3 -5 -12 -10 -18 -10
-7 0 -6 4 3 10 19 12 23 12 15 0z m115 0 c0 -5 -4 -10 -10 -10 -5 0 -10 5 -10
10 0 6 5 10 10 10 6 0 10 -4 10 -10z m205 -10 c10 -12 25 -18 32 -16 15 6 27
-10 13 -19 -5 -3 -10 -11 -10 -17 0 -6 7 -5 18 3 16 13 16 13 2 -5 -14 -18
-13 -19 5 -13 16 6 15 3 -5 -13 -18 -14 -20 -20 -9 -20 8 0 20 5 25 10 7 7 11
7 11 -2 0 -7 4 -21 8 -30 4 -11 3 -18 -4 -18 -6 0 -11 -4 -11 -10 0 -5 3 -9 8
-9 25 4 33 -2 27 -22 -5 -16 -4 -19 5 -14 8 5 11 4 6 -3 -3 -5 0 -12 6 -15 7
-3 -6 -4 -29 -4 -24 1 -45 7 -47 13 -3 8 3 11 20 8 25 -5 33 9 12 22 -7 5 -8
2 -3 -7 6 -11 5 -11 -5 -2 -7 6 -19 9 -28 6 -10 -4 -13 -2 -8 5 3 6 1 14 -5
18 -8 5 -10 2 -5 -7 4 -8 0 -5 -8 5 -12 15 -16 16 -16 5 0 -12 -2 -12 -11 1
-8 12 -9 11 -5 -5 3 -11 1 -27 -4 -35 -8 -13 -10 -12 -10 3 0 9 -4 17 -10 17
-5 0 -7 -8 -4 -17 5 -15 4 -16 -5 -3 -6 8 -11 11 -11 6 0 -4 -12 -1 -27 8 -28
17 -28 17 -7 -2 20 -17 20 -20 5 -30 -14 -10 -13 -11 4 -5 21 7 21 5 -9 -17
-11 -8 -17 -10 -13 -4 3 6 0 11 -8 11 -8 0 -15 -5 -15 -11 0 -5 -6 -2 -13 9
-16 20 -42 11 -33 -12 3 -8 2 -11 -3 -8 -5 3 -12 1 -16 -5 -4 -6 -11 -8 -16
-4 -5 3 -7 9 -5 13 3 4 -1 8 -9 8 -8 0 -11 -5 -8 -10 3 -6 2 -8 -3 -4 -5 3
-10 -8 -10 -24 -1 -16 3 -29 8 -29 5 0 7 4 4 9 -3 5 1 14 9 21 10 9 15 9 15 1
0 -6 -4 -11 -9 -11 -6 0 -8 -9 -6 -19 3 -18 1 -19 -20 -9 -14 6 -22 15 -19 20
3 5 0 16 -7 24 -9 12 -9 13 2 9 10 -4 15 2 16 16 2 17 -1 18 -13 8 -8 -6 -17
-9 -21 -5 -3 3 0 6 8 6 10 1 10 3 -3 10 -10 6 -15 19 -13 30 2 11 0 20 -4 20
-5 0 -8 8 -7 18 0 10 -5 16 -13 14 -12 -3 -12 -1 -1 15 22 28 24 29 17 11 -4
-12 -1 -16 14 -15 10 1 19 5 19 9 0 5 10 2 23 -6 21 -14 24 -14 35 4 7 11 8
20 3 20 -6 0 -13 -5 -16 -10 -4 -6 -10 -8 -14 -5 -11 6 -11 54 0 61 11 6 2 24
-12 24 -5 0 -8 -6 -6 -12 1 -8 -8 -13 -20 -13 -13 0 -22 4 -20 8 1 5 -9 15
-23 22 -14 8 -21 14 -17 15 17 0 47 -21 42 -31 -4 -5 3 -9 15 -9 12 0 19 4 15
9 -3 5 0 13 5 16 13 8 50 -22 50 -39 0 -6 -5 -4 -10 4 -5 8 -10 13 -11 10 0
-3 -2 -18 -4 -35 -3 -26 -2 -28 9 -13 7 10 16 15 20 11 11 -11 47 -10 43 1 -2
6 -13 10 -23 8 -15 -2 -13 1 6 12 14 9 21 15 16 16 -5 0 -1 9 9 20 18 19 17
20 -4 20 -12 0 -20 -3 -17 -8 2 -4 -2 -15 -9 -25 -13 -17 -14 -17 -20 3 -4 12
-4 24 -1 27 3 4 6 -2 6 -12 0 -10 3 -15 8 -11 4 4 7 13 7 19 0 15 34 22 47 9
6 -6 5 -14 -4 -23 -7 -8 -14 -23 -16 -34 -2 -18 -1 -18 18 4 25 29 39 17 34
-30 -3 -27 -2 -28 16 -16 11 6 16 13 10 15 -5 2 -10 8 -10 13 0 4 6 6 13 3 8
-3 13 4 14 17 2 16 -1 18 -11 10 -10 -9 -15 -8 -20 5 -9 24 -7 31 4 14 9 -13
13 -11 31 9 24 30 39 15 33 -32 -3 -24 -1 -27 11 -17 7 6 11 18 8 26 -3 8 0
14 7 14 7 0 1 11 -14 25 -15 14 -23 25 -18 25 5 0 17 -9 27 -20z m35 10 c0 -5
-5 -10 -11 -10 -5 0 -7 5 -4 10 3 6 8 10 11 10 2 0 4 -4 4 -10z m-300 -21 c0
-5 -4 -9 -8 -9 -5 0 -9 7 -9 15 0 8 4 12 9 9 4 -3 8 -9 8 -15z m-85 -7 c-3 -3
-11 0 -18 7 -9 10 -8 11 6 5 10 -3 15 -9 12 -12z m28 -28 c-7 -3 -9 -13 -6
-22 4 -14 3 -14 -5 -2 -12 16 -7 30 11 29 9 0 9 -2 0 -5z m37 -29 c0 -2 -10
-9 -22 -15 -22 -11 -22 -10 -4 4 21 17 26 19 26 11z m30 -16 c0 -5 -4 -7 -10
-4 -5 3 -10 1 -10 -6 0 -7 -3 -10 -6 -6 -8 7 4 27 17 27 5 0 9 -5 9 -11z
m-710 -79 c0 -5 -5 -10 -11 -10 -5 0 -7 5 -4 10 3 6 8 10 11 10 2 0 4 -4 4
-10z m33 -15 c-7 -21 -12 -19 -10 4 0 11 5 18 9 15 4 -3 5 -11 1 -19z m83 10
c-1 -8 -5 -17 -8 -21 -5 -4 -4 16 1 34 3 9 9 -1 7 -13z m888 -36 c-5 -8 9 -13
28 -11 3 1 11 -5 18 -13 9 -11 17 -12 30 -5 11 6 21 6 24 1 8 -12 -3 -41 -15
-41 -5 0 -9 -5 -9 -11 0 -8 5 -7 15 1 20 16 34 4 41 -34 2 -15 12 -39 21 -52
8 -13 12 -24 7 -24 -4 0 -3 -5 4 -12 21 -21 14 -65 -13 -86 -13 -11 -22 -21
-20 -24 2 -2 -8 -18 -23 -34 -15 -17 -44 -53 -64 -81 -20 -28 -43 -60 -52 -70
-8 -10 -27 -33 -41 -51 -15 -17 -31 -30 -36 -27 -5 4 -6 -1 -3 -9 3 -9 2 -16
-4 -16 -11 0 -54 112 -56 146 0 12 -4 21 -7 19 -9 -6 -31 64 -24 75 4 6 1 9
-6 8 -7 -2 -15 5 -17 14 -2 11 2 17 10 15 7 -2 10 -2 5 0 -4 3 -5 9 -2 14 4 5
-2 6 -11 2 -12 -4 -15 -3 -10 5 4 7 2 12 -4 12 -6 0 -9 4 -6 9 4 5 1 11 -6 13
-7 3 -8 9 -3 17 6 10 11 8 21 -10 7 -13 13 -20 14 -16 0 17 -21 47 -30 42 -5
-3 -16 9 -24 26 -20 40 -20 50 -1 25 8 -11 15 -15 15 -9 0 6 12 18 26 28 26
16 26 16 19 -7 l-8 -23 21 25 c25 29 29 15 6 -18 -19 -27 -12 -39 22 -39 17 0
22 2 13 7 -6 5 -19 6 -27 3 -10 -5 -9 3 6 33 10 21 18 49 17 62 -1 13 2 25 7
28 4 3 8 1 8 -4 0 -5 18 -9 41 -8 52 3 70 -23 39 -54 -11 -11 -20 -26 -20 -32
1 -7 7 -2 15 12 8 14 15 21 15 15 0 -5 5 -2 11 8 8 14 7 24 -5 43 -19 28 -4
33 16 6 7 -10 22 -21 33 -25 20 -7 20 -7 1 8 -25 19 -32 55 -10 55 11 0 14 5
10 16 -4 9 -1 14 6 12 6 -2 12 -12 14 -22 1 -10 8 -24 15 -30 9 -8 10 -8 4 3
-5 9 -1 19 11 29 16 12 16 14 2 9 -10 -4 -23 1 -30 11 -13 18 -44 30 -34 13 3
-5 -1 -11 -9 -14 -10 -5 -13 1 -10 24 2 16 -1 27 -6 24 -5 -4 -6 2 -2 12 6 15
5 16 -9 3 -13 -13 -14 -16 -2 -23 8 -4 14 -13 14 -19 0 -7 -4 -7 -12 -1 -7 6
-21 9 -31 8 -9 -2 -15 1 -11 6 10 17 -3 9 -22 -13 -12 -14 -13 -18 -3 -10 15
11 29 7 29 -8 0 -10 -33 -9 -46 2 -8 5 -14 3 -18 -8 -4 -11 -10 -13 -19 -6 -6
5 -21 7 -32 5 -11 -2 -26 -5 -32 -5 -12 -1 -17 -12 -14 -30 0 -5 -4 -8 -11 -8
-9 0 -9 -3 -1 -11 9 -9 7 -16 -6 -28 -9 -9 -12 -13 -6 -9 7 4 15 5 18 1 7 -6
9 4 10 45 0 12 5 21 11 19 13 -4 15 -37 3 -54 -5 -7 -6 -16 -3 -21 3 -5 -9 -9
-27 -8 -25 2 -31 6 -29 20 2 11 -1 15 -7 11 -6 -3 -11 -1 -11 5 0 6 6 10 14 8
8 -2 15 0 15 5 1 20 33 67 44 64 6 -1 11 6 9 16 -2 9 2 17 8 17 6 0 8 -4 5
-10 -3 -5 -3 -10 2 -11 4 0 18 -2 31 -3 13 -2 25 1 28 6 3 4 10 6 15 3 8 -6
13 8 10 28 -1 4 9 5 22 3 21 -4 60 23 54 36 -1 2 6 -5 15 -15 10 -11 15 -23
12 -28z m-1144 37 c0 -2 -8 -10 -17 -17 -16 -13 -17 -12 -4 4 13 16 21 21 21
13z m50 -10 c0 -2 -8 -10 -17 -17 -16 -13 -17 -12 -4 4 13 16 21 21 21 13z
m250 -26 c0 -5 -5 -10 -11 -10 -5 0 -7 5 -4 10 3 6 8 10 11 10 2 0 4 -4 4 -10z
m-324 -26 c1 -9 0 -13 -4 -10 -3 4 -7 14 -8 22 -1 9 0 13 4 10 3 -4 7 -14 8
-22z m61 1 c0 -8 -4 -12 -9 -9 -4 3 -8 9 -8 15 0 5 4 9 8 9 5 0 9 -7 9 -15z
m39 -9 c1 -7 -4 -13 -12 -13 -9 0 -11 4 -4 12 5 7 8 15 5 18 -3 4 -2 5 2 2 4
-3 8 -11 9 -19z m1037 -5 c-3 -11 10 -15 37 -11 11 1 10 -2 -4 -13 -13 -9 -16
-19 -11 -28 8 -12 6 -12 -8 0 -12 10 -21 10 -30 3 -7 -6 -22 -9 -32 -7 -11 2
-26 4 -32 4 -7 1 -13 6 -13 12 0 5 4 8 9 5 5 -3 14 1 21 9 7 8 16 13 20 10 4
-2 16 3 26 11 10 9 14 13 7 10 -6 -4 -14 -2 -17 3 -4 5 2 8 11 6 10 -1 17 -8
16 -14z m-1141 -16 c2 3 5 -2 5 -10 0 -19 0 -19 -23 7 -12 14 -13 18 -3 10 9
-6 18 -10 21 -7z m162 -6 c3 -3 -4 -5 -14 -6 -11 -1 -22 2 -24 6 -5 8 30 8 38
0z m863 -2 c6 -4 14 -3 18 3 8 13 25 13 25 -1 0 -5 -4 -8 -9 -5 -12 8 -37 -34
-35 -60 1 -16 -5 -20 -27 -20 -28 0 -38 9 -21 20 10 6 9 36 -1 53 -12 18 25
26 50 10z m-957 -1 c0 -2 -8 -10 -17 -17 -16 -13 -17 -12 -4 4 13 16 21 21 21
13z m-113 -34 c-10 -10 -14 -22 -10 -25 3 -4 1 -7 -5 -7 -7 0 -12 3 -12 7 0 8
31 43 38 43 3 0 -2 -8 -11 -18z m133 14 c0 -2 -8 -10 -17 -17 -16 -13 -17 -12
-4 4 13 16 21 21 21 13z m-80 -12 c0 -8 -19 -13 -24 -6 -3 5 1 9 9 9 8 0 15
-2 15 -3z m20 -8 c0 -2 -8 -10 -17 -17 -16 -13 -17 -12 -4 4 13 16 21 21 21
13z m85 -15 c-9 -8 -36 -10 -30 -2 2 4 11 8 20 8 8 0 13 -3 10 -6z m115 1 c0
-5 -7 -9 -15 -9 -8 0 -12 4 -9 9 3 4 9 8 15 8 5 0 9 -4 9 -8z m-44 -17 c-1 -8
-8 -21 -16 -28 -10 -10 -11 -9 -4 3 5 8 9 18 10 23 3 14 4 17 8 17 2 0 3 -7 2
-15z m-196 1 c0 -2 -7 -6 -15 -10 -8 -3 -15 -1 -15 4 0 6 7 10 15 10 8 0 15
-2 15 -4z m160 -11 c-5 -7 -9 -14 -7 -16 1 -2 0 -3 -2 -1 -11 7 -7 29 5 29 9
0 11 -4 4 -12z m-209 -29 c5 3 9 0 9 -6 0 -15 -23 -7 -26 8 -1 7 0 8 3 2 2 -5
9 -8 14 -4z m182 1 c4 3 7 1 7 -5 0 -17 -16 -15 -31 6 -12 15 -12 16 2 5 9 -7
19 -10 22 -6z m827 9 c0 -3 -4 -8 -10 -11 -5 -3 -10 -1 -10 4 0 6 5 11 10 11
6 0 10 -2 10 -4z m-940 -18 c0 -4 -4 -8 -9 -8 -6 0 -12 4 -15 8 -3 5 1 9 9 9
8 0 15 -4 15 -9z m54 -3 c11 -8 15 -15 9 -15 -7 0 -15 5 -18 10 -4 6 -11 8
-16 5 -5 -4 -9 -1 -9 4 0 15 11 13 34 -4z m206 7 c0 -5 -7 -9 -15 -9 -8 0 -12
4 -9 9 3 4 9 8 15 8 5 0 9 -4 9 -8z m-365 -31 c-3 -11 -1 -22 5 -26 6 -3 10 4
11 17 0 13 3 17 6 10 3 -7 2 -20 -1 -29 -6 -15 -8 -15 -22 -2 -8 9 -12 23 -8
32 9 23 17 21 9 -2z m95 2 c0 -3 -9 -3 -20 0 -15 4 -20 0 -20 -13 0 -13 6 -18
20 -15 11 2 23 -1 26 -7 5 -7 2 -8 -6 -3 -9 5 -10 1 -6 -16 l7 -24 -14 23 c-7
12 -16 20 -20 16 -9 -10 -20 23 -14 40 5 13 47 12 47 -1z m22 -15 c-7 -7 -12
-8 -12 -2 0 14 12 26 19 19 2 -3 -1 -11 -7 -17z m224 3 c0 -14 -4 -17 -12 -11
-6 6 -13 7 -16 4 -3 -3 -9 0 -14 7 -4 7 -3 10 2 6 6 -3 16 -2 24 4 8 5 15 9
15 9 1 0 1 -9 1 -19z m-185 -18 c-12 -20 -14 -14 -5 12 4 9 9 14 11 11 3 -2 0
-13 -6 -23z m64 8 c3 -5 0 -13 -6 -17 -8 -4 -9 -3 -5 4 4 7 2 12 -3 12 -6 0
-11 -5 -11 -12 0 -6 -3 -9 -6 -5 -7 7 4 27 16 27 5 0 11 -4 15 -9z m-225 -32
c0 -5 -5 -9 -11 -9 -5 0 -7 5 -4 10 3 6 1 10 -4 10 -6 0 -11 5 -11 11 0 8 5 8
15 -1 8 -7 15 -16 15 -21z m246 7 c0 -14 -6 -22 -13 -19 -9 4 -9 9 0 24 15 24
15 24 13 -5z m47 7 c-4 -11 -3 -14 5 -9 7 4 12 5 12 2 0 -3 -10 -10 -21 -17
-12 -6 -19 -7 -17 -2 3 4 8 16 11 26 4 9 9 17 11 17 3 0 2 -7 -1 -17z m-111
-35 c-6 -6 -12 -6 -17 3 -6 8 -4 10 5 4 9 -5 10 -1 6 16 -6 21 -6 22 5 6 7
-13 8 -22 1 -29z m-127 22 c3 -5 2 -10 -4 -10 -5 0 -13 5 -16 10 -3 6 -2 10 4
10 5 0 13 -4 16 -10z m89 -5 c3 -9 -1 -18 -9 -21 -8 -4 -12 -10 -9 -15 3 -5
-3 -6 -12 -2 -11 4 -13 8 -6 11 7 2 10 8 7 13 -4 5 2 6 12 2 16 -6 16 -5 4 10
-7 9 -9 17 -3 17 5 0 13 -7 16 -15z m216 11 c0 -2 -8 -10 -17 -17 -16 -13 -17
-12 -4 4 13 16 21 21 21 13z m-313 -92 c4 4 -8 21 -27 38 -19 16 -29 27 -22
23 6 -3 12 -1 12 4 0 6 5 11 11 11 8 0 8 -5 -1 -15 -15 -18 0 -20 20 -2 12 10
12 9 2 -5 -11 -14 -9 -19 10 -32 21 -15 21 -16 4 -29 -16 -12 -22 -10 -42 10
-14 14 -32 36 -41 51 -10 16 0 8 25 -17 23 -25 45 -41 49 -37z m36 39 c-4 -9
0 -11 13 -7 16 6 17 5 6 -7 -11 -12 -15 -11 -26 3 -7 10 -16 14 -21 10 -4 -4
-2 3 6 15 14 23 32 12 22 -14z m118 14 c-10 -9 -11 -8 -5 6 3 10 9 15 12 12 3
-3 0 -11 -7 -18z m-235 -19 c9 -18 13 -30 9 -26 -5 4 -14 0 -21 -10 -10 -14
-15 -15 -26 -4 -11 11 -10 12 5 7 16 -7 25 9 10 18 -5 2 -2 2 5 1 15 -4 15 1
2 27 -6 10 -8 19 -6 19 3 0 13 -15 22 -32z m195 -3 c-12 -6 -18 -15 -14 -20 4
-4 2 -5 -6 0 -12 7 -11 10 2 20 9 7 14 15 10 19 -4 4 1 4 11 0 17 -7 17 -8 -3
-19z m106 18 c-9 -8 -47 -11 -47 -4 0 5 11 9 25 9 14 0 24 -2 22 -5z m63 -8
c0 -8 -4 -15 -8 -15 -5 0 -9 7 -9 15 0 8 4 15 9 15 4 0 8 -7 8 -15z m-40 -5
c0 -5 -8 -10 -17 -10 -15 0 -16 2 -3 10 19 12 20 12 20 0z m-80 -10 c0 -5 -4
-10 -10 -10 -5 0 -10 5 -10 10 0 6 5 10 10 10 6 0 10 -4 10 -10z m-84 -36 c-3
-8 4 -19 17 -25 33 -18 50 -49 26 -49 -5 0 -7 5 -4 10 3 6 -7 18 -24 28 -22
12 -29 22 -25 35 7 23 3 22 -41 -13 -21 -17 -41 -27 -44 -24 -3 4 -1 9 5 11 6
2 26 15 44 28 33 25 56 24 46 -1z m54 16 c0 -5 -4 -10 -10 -10 -5 0 -10 5 -10
10 0 6 5 10 10 10 6 0 10 -4 10 -10z m57 -4 c-3 -7 0 -20 6 -27 8 -8 5 -8 -7
1 -17 13 -19 13 -14 0 3 -8 15 -15 27 -14 27 1 26 0 -5 -21 -15 -9 -23 -12
-19 -6 4 7 1 18 -5 26 -9 11 -10 19 -1 28 6 8 8 17 4 20 -3 4 -1 7 6 7 7 0 11
-6 8 -14z m29 -1 c-3 -9 0 -15 9 -15 8 0 15 -5 15 -10 0 -17 -33 5 -36 24 -1
9 2 16 8 16 6 0 8 -7 4 -15z m47 1 c4 -10 1 -13 -9 -9 -7 3 -14 9 -14 14 0 14
17 10 23 -5z m-298 -35 c5 -26 -3 -51 -17 -51 -5 0 -6 5 -2 11 4 7 1 10 -6 7
-7 -2 -15 -15 -17 -27 -3 -20 -1 -22 11 -11 9 6 19 9 25 6 5 -4 13 3 16 14 6
18 9 19 23 8 13 -11 15 -11 9 4 -4 12 0 19 14 23 10 4 19 11 19 17 0 6 2 9 5
6 9 -8 -6 -38 -16 -32 -5 3 -9 -3 -9 -13 0 -12 8 -19 20 -20 11 -1 18 2 15 8
-3 5 -2 15 2 23 7 13 11 13 27 0 11 -8 16 -14 12 -14 -5 0 -3 -7 4 -15 7 -8
17 -12 22 -9 5 4 22 -3 38 -14 15 -12 30 -18 34 -15 3 3 -9 17 -26 30 -18 12
-27 23 -21 23 5 0 22 -10 37 -23 l27 -23 -21 -19 c-16 -15 -18 -21 -7 -34 11
-14 10 -14 -5 -2 -21 15 -23 9 -7 -21 8 -16 8 -19 -1 -13 -9 5 -10 1 -5 -14 6
-21 -2 -26 -34 -21 -12 1 -12 -1 -4 -12 10 -11 11 -37 3 -58 -1 -3 -2 -8 -1
-12 0 -5 -4 -7 -11 -5 -6 1 -12 -10 -13 -24 -2 -34 -13 -49 -33 -49 -16 1 -16
1 0 10 9 6 15 18 14 28 -3 19 -36 24 -49 7 -5 -6 -6 -2 -3 10 l6 20 -16 -20
c-14 -17 -16 -17 -10 -2 4 13 2 16 -7 11 -9 -5 -9 -4 1 7 17 18 15 32 -4 25
-8 -3 -13 -2 -10 3 3 5 -8 7 -24 6 -20 -2 -27 1 -23 9 4 7 1 6 -8 -1 -13 -10
-20 -10 -35 1 -10 8 -16 18 -11 22 4 4 7 2 7 -5 0 -7 5 -9 11 -6 6 5 4 12 -8
20 -13 9 -22 10 -30 3 -7 -6 -13 -7 -13 -3 0 4 -8 1 -17 -6 -14 -12 -16 -12
-8 0 5 9 4 12 -3 7 -7 -4 -10 1 -7 14 3 14 0 18 -8 13 -7 -4 -5 2 3 13 14 18
14 18 -2 5 -10 -7 -18 -10 -18 -7 0 4 -5 4 -10 1 -8 -5 -7 -12 2 -23 11 -13
10 -15 -4 -9 -10 3 -17 3 -15 -1 1 -4 -1 -8 -5 -10 -10 -3 -8 6 5 36 6 12 14
22 19 22 4 0 8 5 8 11 0 5 -6 7 -12 3 -9 -5 -9 -3 1 9 7 9 17 14 22 12 4 -3 7
7 6 22 -1 18 3 27 11 26 6 -2 12 2 12 7 0 5 -6 10 -12 10 -10 0 -10 2 0 9 8 4
13 11 12 15 -4 26 38 41 53 19 4 -7 13 -13 19 -13 6 0 4 8 -5 18 -21 23 -21
32 -1 32 9 0 24 -10 35 -22 10 -13 18 -18 19 -11 0 6 -4 14 -10 18 -5 3 -7 12
-3 20 4 11 0 14 -13 9 -16 -5 -16 -4 -4 5 17 12 29 3 35 -28z m188 24 c-3 -9
-8 -14 -10 -11 -3 3 -2 9 2 15 9 16 15 13 8 -4z m-9 -30 c11 -8 16 -18 13 -22
-4 -4 -14 3 -23 15 -8 12 -22 22 -30 22 -8 0 -14 5 -14 10 0 12 19 3 54 -25z
m-264 5 c0 -5 -2 -10 -4 -10 -3 0 -8 5 -11 10 -3 6 -1 10 4 10 6 0 11 -4 11
-10z m354 -36 c3 -8 2 -12 -3 -9 -5 3 -12 1 -16 -5 -3 -5 -1 -10 6 -10 7 0 9
-3 6 -6 -9 -9 -38 16 -31 27 3 5 10 7 15 4 5 -4 9 -1 9 4 0 16 7 13 14 -5z
m-419 -184 c-2 -4 5 -16 16 -26 15 -13 20 -14 17 -4 -2 8 2 14 7 15 6 0 16 4
22 8 9 5 11 3 7 -6 -8 -21 31 -45 66 -42 17 1 30 -2 30 -7 0 -6 8 -7 18 -4 14
5 14 4 -2 -9 -22 -17 -40 -20 -31 -6 3 5 0 13 -6 17 -8 5 -9 3 -4 -6 6 -9 4
-11 -5 -5 -9 6 -11 4 -5 -6 7 -12 5 -11 -11 1 -15 11 -16 11 -6 0 20 -24 13
-31 -9 -9 -11 11 -26 18 -33 16 -9 -4 -12 3 -10 18 1 13 -4 26 -10 28 -9 4
-12 -4 -11 -27 3 -26 -1 -32 -17 -33 -16 -2 -17 1 -7 13 10 12 8 17 -7 29 -10
7 -21 9 -22 4 -2 -5 -8 -6 -14 -3 -6 4 -5 10 3 16 11 8 11 9 -1 5 -8 -2 -14
-10 -12 -17 2 -7 -5 -9 -20 -5 -13 3 -18 3 -13 -2 13 -10 18 -36 6 -29 -5 4
-13 2 -16 -4 -4 -6 -3 -10 2 -9 17 3 33 -1 33 -9 0 -12 -40 -9 -41 3 0 11 -20
-31 -25 -53 -2 -9 1 -10 10 -3 7 6 17 6 26 1 8 -5 17 -7 21 -4 4 2 7 -5 6 -16
-2 -26 -22 -33 -39 -13 -11 15 -11 16 7 9 15 -5 17 -4 8 5 -13 13 -37 3 -28
-12 4 -5 2 -9 -3 -9 -20 0 -22 50 -5 83 9 17 16 36 15 40 -1 5 2 5 8 2 6 -4
11 -1 9 6 -3 27 1 40 14 37 6 -1 22 4 35 11 20 11 21 15 10 29 -12 15 -11 16
4 3 10 -7 16 -17 13 -21z m-15 -83 c0 -5 -6 -5 -12 -1 -10 6 -10 5 -1 -8 7 -8
10 -18 6 -22 -14 -14 -11 -35 5 -29 10 4 13 2 8 -6 -4 -6 -2 -19 6 -28 11 -15
11 -16 -5 -10 -10 4 -16 3 -13 -2 3 -5 -1 -11 -8 -14 -10 -4 -14 1 -13 14 1
10 6 19 11 19 6 0 5 5 -2 12 -11 11 -31 18 -61 20 -10 1 -9 5 5 15 23 17 38
17 31 0 -3 -8 0 -14 7 -14 6 0 12 15 12 34 0 18 -4 33 -10 33 -6 0 -4 4 4 10
14 9 29 -3 30 -23z m21 20 c-1 -12 -15 -9 -19 4 -3 6 1 10 8 8 6 -3 11 -8 11
-12z m103 -45 c8 -13 11 -13 22 3 9 12 14 14 14 6 0 -11 3 -11 16 0 13 11 17
10 25 -3 9 -16 23 -17 64 -3 16 6 17 5 5 -4 -13 -9 -13 -11 -1 -11 11 0 10 -4
-4 -14 -18 -13 -18 -13 1 -24 16 -10 17 -13 4 -22 -12 -8 -12 -10 -1 -10 11 0
11 -4 -2 -18 -10 -10 -14 -22 -10 -25 3 -4 3 -7 0 -7 -3 0 -11 9 -17 20 -8 16
-8 18 4 14 10 -4 14 2 12 19 0 14 -4 23 -8 21 -3 -2 -5 7 -3 21 2 21 0 23 -12
13 -11 -9 -11 -13 -1 -19 9 -6 9 -9 1 -9 -6 0 -14 4 -18 10 -3 5 -13 6 -22 3
-13 -5 -15 -2 -10 13 7 18 6 18 -7 1 -12 -16 -14 -16 -20 -2 -3 9 -11 13 -17
10 -6 -4 -8 -14 -5 -22 4 -9 1 -13 -6 -10 -7 2 -12 14 -10 27 2 16 -2 21 -13
16 -10 -4 -14 -2 -9 5 4 7 -1 7 -16 -1 -17 -9 -21 -9 -15 0 6 9 3 9 -14 1 -17
-10 -20 -9 -15 4 3 8 9 13 13 11 4 -3 13 -1 21 4 16 10 42 2 54 -18z m-99 -3
c0 -9 12 -14 41 -14 26 0 40 -4 37 -11 -5 -14 23 -38 36 -30 6 4 8 14 5 24 -5
15 -4 15 6 -1 6 -9 15 -15 21 -12 5 4 9 1 9 -6 0 -8 4 -9 13 0 10 8 19 6 35
-10 26 -23 28 -31 7 -23 -19 8 -19 0 0 -36 10 -19 11 -30 5 -30 -6 0 -8 -4 -5
-10 3 -5 1 -10 -5 -10 -6 0 -9 -4 -5 -9 3 -5 0 -13 -6 -16 -5 -4 -8 -13 -5
-20 5 -15 -40 -65 -59 -65 -7 0 -15 7 -19 15 -6 16 -36 21 -36 5 0 -5 7 -6 17
-3 10 4 14 2 9 -5 -9 -16 32 -26 49 -12 10 8 15 9 15 2 0 -16 -38 -34 -52 -26
-7 5 -8 3 -4 -5 5 -7 14 -10 22 -7 17 7 18 -6 2 -22 -7 -7 -9 -12 -5 -12 4 0
0 -14 -9 -31 -11 -23 -21 -30 -35 -26 -10 3 -22 0 -26 -5 -3 -7 -1 -8 5 -4 7
4 12 3 12 -3 0 -6 7 -8 16 -4 13 5 15 3 6 -13 -16 -31 -66 -139 -66 -144 -3
-24 -41 -88 -49 -83 -6 3 -7 1 -3 -5 10 -16 -4 -63 -17 -55 -6 3 -7 1 -3 -5 4
-6 2 -19 -3 -29 -9 -16 -41 -89 -46 -103 -1 -3 -9 -22 -18 -44 -9 -21 -17 -42
-17 -47 0 -5 -10 -15 -22 -23 -17 -10 -65 -14 -193 -14 -172 0 -205 5 -205 35
0 10 34 91 76 183 42 91 83 182 92 202 10 21 22 36 29 33 7 -2 15 1 19 7 4 6
3 8 -4 4 -22 -14 -19 12 9 72 16 35 29 67 29 73 0 5 5 9 11 9 5 0 7 -4 4 -10
-10 -16 1 -11 16 7 8 10 9 14 2 10 -20 -12 -25 11 -6 30 10 10 20 30 22 43 1
14 7 27 11 30 5 3 12 18 15 33 4 15 11 27 17 27 5 0 6 5 2 12 -5 7 -3 8 6 3 9
-5 10 -2 5 14 -5 16 -3 20 9 15 9 -3 16 -1 16 5 0 6 -4 11 -9 11 -5 0 -7 9 -4
20 3 11 13 20 22 20 25 0 33 -11 20 -27 -18 -21 0 -15 24 8 12 12 17 19 11 16
-16 -9 -61 16 -56 31 2 6 8 12 13 12 6 0 8 -4 5 -9 -7 -11 22 -23 35 -15 5 3
9 0 9 -6 0 -7 7 -10 15 -7 8 4 17 2 20 -3 4 -6 18 -4 35 5 38 20 43 19 28 -5
-7 -11 -16 -20 -21 -20 -4 0 -5 5 -1 12 4 7 3 8 -5 4 -19 -12 -3 -24 31 -22
19 2 32 7 31 14 -3 14 13 16 22 3 3 -5 -4 -16 -15 -24 -24 -16 -80 -13 -92 6
-6 9 -8 9 -8 -1 0 -7 8 -16 18 -19 9 -4 22 -13 28 -21 9 -13 14 -12 32 6 12
12 27 22 34 22 6 0 2 -9 -10 -20 -24 -22 -29 -40 -11 -40 5 0 8 4 5 9 -10 15
17 28 52 26 24 -1 38 -9 51 -29 16 -23 19 -25 31 -11 7 8 10 15 6 15 -4 0 0
13 9 29 17 34 6 48 -26 31 -12 -7 -18 -17 -15 -27 4 -9 1 -13 -6 -10 -7 2 -11
11 -9 18 2 8 4 21 5 28 2 8 9 17 16 19 9 3 10 0 4 -9 -6 -11 -5 -12 8 -2 8 7
17 11 19 9 2 -2 5 8 5 22 1 15 -1 21 -3 15 -3 -9 -10 -10 -22 -3 -21 11 -32 4
-24 -16 3 -10 0 -12 -10 -8 -9 3 -14 13 -10 22 3 10 1 13 -4 7 -4 -6 -17 -11
-28 -11 -14 1 -19 -5 -17 -17 3 -15 0 -16 -17 -5 -20 12 -20 13 5 29 16 10 22
19 15 23 -13 9 -33 -2 -26 -14 3 -4 -2 -11 -11 -14 -26 -10 -26 -7 -3 27 13
18 16 26 7 19 -13 -10 -17 -10 -21 0 -3 7 -5 2 -4 -12 1 -16 -3 -25 -13 -25
-8 0 -15 8 -15 18 0 10 -6 22 -14 26 -9 6 -10 11 -2 15 6 4 8 12 5 18 -4 6 -1
9 7 6 8 -3 14 -11 14 -19z m175 -91 c0 -6 -6 -5 -15 2 -8 7 -15 14 -15 16 0 2
7 1 15 -2 8 -4 15 -11 15 -16z m-72 -7 c-2 -9 -8 -20 -13 -26 -6 -5 -8 -9 -6
-8 2 2 10 -2 18 -9 11 -9 12 -7 7 7 -6 14 -4 16 7 10 12 -8 12 -6 0 8 -12 15
-11 17 2 17 10 0 15 -7 12 -20 -6 -31 -14 -39 -35 -37 -24 2 -34 25 -19 43 6
7 8 17 5 22 -3 5 1 9 9 9 9 0 14 -7 13 -16z m-71 -6 c0 -8 -4 -15 -8 -15 -11
0 -20 16 -12 24 11 11 20 7 20 -9z m155 -32 c-6 -2 -10 -9 -6 -14 3 -5 -2 -9
-10 -9 -9 0 -16 4 -16 9 0 10 18 19 35 19 6 0 4 -2 -3 -5z m-172 -17 c0 -3 -4
-8 -10 -11 -5 -3 -10 -1 -10 4 0 6 5 11 10 11 6 0 10 -2 10 -4z m157 -31 c0
-8 -4 -15 -8 -15 -11 0 -20 16 -12 24 11 11 20 7 20 -9z"/>
<path d="M1947 2103 c-4 -3 -2 -12 4 -20 9 -10 8 -13 0 -13 -7 0 -9 -4 -6 -10
11 -18 -42 -56 -74 -54 -32 2 -36 -2 -22 -24 7 -11 9 -11 14 2 7 18 27 22 27
5 0 -5 -4 -7 -10 -4 -5 3 -10 1 -10 -5 0 -7 7 -10 15 -7 8 4 17 2 20 -4 4 -5
11 -7 16 -4 5 4 9 1 9 -6 0 -16 13 -3 16 16 3 18 -7 19 -25 3 -11 -11 -12 -10
-6 1 6 10 4 12 -5 6 -9 -5 -11 -4 -6 4 4 6 11 9 16 6 5 -3 12 4 15 16 5 16 9
18 15 9 5 -7 7 -21 5 -31 -2 -10 2 -20 9 -22 9 -4 12 3 9 21 -3 15 -5 48 -6
75 -1 45 -6 55 -20 40z"/>
<path d="M2014 2095 c-10 -8 -15 -15 -11 -15 5 0 -1 -12 -12 -26 -16 -21 -18
-29 -8 -44 6 -11 13 -17 16 -15 2 3 20 -5 39 -17 20 -12 32 -16 28 -9 -4 6 -3
17 3 24 6 8 6 18 1 27 -7 10 -10 11 -10 3 0 -7 -6 -12 -12 -10 -7 1 -12 -4
-10 -11 1 -8 -1 -11 -6 -8 -10 6 -9 42 1 52 4 4 2 13 -4 21 -9 10 -8 17 1 28
16 19 9 19 -16 0z m3 -47 c-9 -5 -14 -15 -11 -23 6 -15 -7 -21 -19 -9 -9 9 26
53 37 47 5 -3 1 -10 -7 -15z m53 -43 c0 -2 -6 -8 -13 -14 -10 -8 -14 -7 -14 2
0 8 6 14 14 14 7 0 13 -1 13 -2z"/>
<path d="M1854 2046 c-8 -14 -21 -23 -29 -20 -16 7 -48 -37 -36 -49 13 -13 31
1 25 17 -3 8 -1 17 4 20 5 3 8 -6 6 -20 -1 -14 1 -23 4 -19 4 3 7 14 7 22 0 9
8 17 19 19 10 1 24 8 30 15 8 9 8 10 -1 5 -16 -9 -17 6 -1 22 9 9 9 12 0 12
-6 0 -19 -11 -28 -24z"/>
<path d="M1713 1959 c1 -21 4 -39 7 -40 5 0 14 -2 60 -13 8 -2 14 -10 12 -17
-2 -8 8 -1 21 16 19 22 28 27 38 19 27 -20 68 -2 48 22 -6 7 -15 11 -20 8 -5
-3 -9 -1 -9 4 0 11 -53 11 -61 0 -3 -5 -16 2 -28 13 -13 12 -34 23 -47 25 -21
2 -23 -1 -21 -37z m52 1 c-3 -4 3 -14 12 -21 15 -12 16 -12 10 5 -6 14 -4 16
5 9 15 -11 28 -11 46 0 7 5 14 2 18 -8 5 -12 9 -13 20 -4 8 6 14 9 14 5 0 -3
0 -9 0 -13 1 -14 -31 -11 -37 3 -5 13 -9 12 -27 -5 -13 -12 -31 -19 -43 -17
-34 7 -64 26 -58 37 4 5 10 7 15 4 5 -3 11 -1 15 5 3 5 1 10 -4 10 -6 0 -11 5
-11 11 0 8 5 8 15 -1 8 -7 13 -16 10 -20z"/>
<path d="M1750 1941 c0 -5 7 -12 16 -15 14 -5 15 -4 4 9 -14 17 -20 19 -20 6z"/>
<path d="M1800 1930 c-9 -6 -10 -10 -3 -10 6 0 15 5 18 10 8 12 4 12 -15 0z"/>
<path d="M2053 1825 c0 -8 3 -13 5 -10 3 3 11 -3 18 -13 11 -14 15 -15 26 -3
11 12 10 13 -4 8 -11 -4 -19 0 -23 14 -7 23 -22 25 -22 4z"/>
<path d="M2125 1821 c-3 -6 3 -9 14 -8 11 0 17 5 15 9 -7 11 -22 10 -29 -1z"/>
<path d="M1910 1788 c0 -5 5 -6 10 -3 6 3 10 2 10 -2 0 -5 9 -14 21 -21 12 -8
18 -9 15 -4 -3 6 1 12 9 16 17 6 20 26 4 26 -5 0 -8 -4 -5 -9 3 -5 -1 -12 -10
-15 -11 -4 -15 -2 -11 6 3 8 -5 14 -19 14 -13 1 -24 -2 -24 -8z"/>
<path d="M2115 1790 c-3 -5 -2 -18 4 -27 7 -14 9 -12 8 10 -2 30 -3 31 -12 17z"/>
<path d="M2140 1791 c0 -6 4 -13 10 -16 6 -3 7 1 4 9 -7 18 -14 21 -14 7z"/>
<path d="M1902 1745 c-6 -13 -8 -26 -4 -29 17 -10 47 2 49 20 2 14 1 15 -5 4
-10 -21 -44 -26 -36 -5 3 8 10 12 15 9 5 -3 9 -1 9 5 0 21 -18 19 -28 -4z"/>
<path d="M2059 1768 c-6 -21 -5 -37 2 -32 5 3 7 9 4 14 -3 5 5 11 17 13 l23 4
-22 2 c-13 0 -23 0 -24 -1z"/>
<path d="M2137 1741 c-3 -13 -1 -18 9 -14 7 2 10 11 7 19 -7 19 -10 18 -16 -5z"/>
<path d="M2171 1744 c0 -11 3 -14 6 -6 3 7 2 16 -1 19 -3 4 -6 -2 -5 -13z"/>
<path d="M2020 1735 c0 -9 -6 -12 -15 -9 -8 4 -15 2 -15 -4 0 -6 7 -9 16 -8
19 3 41 36 24 36 -5 0 -10 -7 -10 -15z"/>
<path d="M2095 1740 c3 -5 8 -10 11 -10 2 0 4 5 4 10 0 6 -5 10 -11 10 -5 0
-7 -4 -4 -10z"/>
<path d="M1810 1718 c-12 -22 -12 -22 6 -6 10 10 15 20 12 24 -4 3 -12 -5 -18
-18z"/>
<path d="M2070 1721 c0 -6 4 -12 8 -15 5 -3 9 1 9 9 0 8 -4 15 -9 15 -4 0 -8
-4 -8 -9z"/>
<path d="M2097 1701 c-4 -17 -3 -21 5 -13 5 5 8 16 6 23 -3 8 -7 3 -11 -10z"/>
<path d="M1830 1705 c0 -5 5 -17 10 -25 5 -8 10 -10 10 -5 0 6 -5 17 -10 25
-5 8 -10 11 -10 5z"/>
<path d="M1947 1703 c-3 -5 6 -9 20 -10 19 -1 22 1 12 8 -17 11 -26 11 -32 2z"/>
<path d="M2127 1699 c7 -7 15 -10 18 -7 3 3 -2 9 -12 12 -14 6 -15 5 -6 -5z"/>
<path d="M2180 1700 c-9 -6 -10 -10 -3 -10 6 0 15 5 18 10 8 12 4 12 -15 0z"/>
<path d="M1870 1670 c-9 -6 -10 -10 -3 -10 6 0 15 5 18 10 8 12 4 12 -15 0z"/>
<path d="M1906 1664 c-6 -15 -4 -15 11 -3 10 7 20 15 22 16 2 2 -3 3 -11 3 -9
0 -19 -7 -22 -16z"/>
<path d="M1955 1670 c-3 -6 1 -7 9 -4 18 7 21 14 7 14 -6 0 -13 -4 -16 -10z"/>
<path d="M2115 1660 c3 -5 8 -10 11 -10 2 0 4 5 4 10 0 6 -5 10 -11 10 -5 0
-7 -4 -4 -10z"/>
<path d="M2176 1658 c3 -5 10 -6 15 -3 13 9 11 12 -6 12 -8 0 -12 -4 -9 -9z"/>
<path d="M1870 1640 c0 -5 5 -10 10 -10 6 0 10 5 10 10 0 6 -4 10 -10 10 -5 0
-10 -4 -10 -10z"/>
<path d="M1948 1643 c6 -2 9 -10 6 -15 -4 -7 -2 -8 5 -4 13 9 5 26 -12 25 -9
0 -8 -2 1 -6z"/>
<path d="M2028 1643 c7 -3 16 -2 19 1 4 3 -2 6 -13 5 -11 0 -14 -3 -6 -6z"/>
<path d="M2066 1638 c3 -5 10 -6 15 -3 13 9 11 12 -6 12 -8 0 -12 -4 -9 -9z"/>
<path d="M2100 1646 c0 -2 8 -10 18 -17 15 -13 16 -12 3 4 -13 16 -21 21 -21
13z"/>
<path d="M1914 1618 c-4 -7 -4 -10 1 -6 4 4 15 2 24 -5 14 -11 14 -10 2 6 -16
20 -18 21 -27 5z"/>
<path d="M2136 1613 c-6 -14 -5 -15 5 -6 7 7 10 15 7 18 -3 3 -9 -2 -12 -12z"/>
<path d="M1873 1607 c0 -8 6 -14 14 -14 9 0 10 4 2 14 -6 7 -12 13 -14 13 -1
0 -2 -6 -2 -13z"/>
<path d="M2019 1598 c-6 -20 -6 -39 0 -42 4 -3 7 6 7 20 0 20 -4 32 -7 22z"/>
<path d="M2053 1565 c0 -8 4 -12 9 -9 5 3 6 10 3 15 -9 13 -12 11 -12 -6z"/>
<path d="M1906 1558 c3 -5 10 -6 15 -3 13 9 11 12 -6 12 -8 0 -12 -4 -9 -9z"/>
<path d="M1873 1535 c0 -8 4 -12 9 -9 5 3 6 10 3 15 -9 13 -12 11 -12 -6z"/>
<path d="M2016 1522 c-3 -5 1 -9 9 -9 8 0 12 4 9 9 -3 4 -7 8 -9 8 -2 0 -6 -4
-9 -8z"/>
<path d="M1914 1480 c0 -13 4 -16 10 -10 7 7 7 13 0 20 -6 6 -10 3 -10 -10z"/>
<path d="M2036 1473 c-6 -14 -5 -15 5 -6 7 7 10 15 7 18 -3 3 -9 -2 -12 -12z"/>
<path d="M1966 1843 c-4 -11 -1 -11 14 -3 24 13 25 17 5 17 -8 0 -16 -6 -19
-14z"/>
<path d="M1854 1834 c-1 -13 3 -24 10 -24 6 0 4 -5 -4 -11 -13 -9 -13 -10 0
-6 9 2 14 14 13 31 -1 18 2 24 10 20 7 -4 8 -3 4 1 -15 18 -32 12 -33 -11z"/>
<path d="M720 1525 c7 -9 15 -13 17 -11 7 7 -7 26 -19 26 -6 0 -6 -6 2 -15z"/>
<path d="M659 1508 c-6 -22 -5 -38 3 -38 7 0 7 -5 -1 -13 -6 -8 -9 -23 -6 -36
2 -12 0 -19 -5 -16 -5 3 -11 1 -15 -5 -4 -6 -10 -8 -14 -6 -3 3 -7 -4 -7 -15
0 -19 1 -19 13 -3 13 18 14 16 17 -28 1 -16 7 -23 21 -23 14 0 20 7 21 23 1
12 -3 22 -8 22 -6 0 -7 7 -4 16 4 9 2 13 -5 8 -8 -4 -8 -1 0 13 7 14 7 23 -1
31 -8 8 -7 13 6 18 14 5 15 9 4 15 -10 7 -10 9 2 9 13 0 13 1 0 11 -13 9 -13
10 0 6 8 -2 14 -10 12 -17 -2 -8 3 -10 13 -6 9 3 19 6 23 6 3 0 -3 7 -14 15
-16 12 -52 21 -55 13z m6 -139 c18 -34 17 -44 -3 -23 -7 8 -10 14 -7 14 3 0 1
9 -5 20 -6 11 -8 20 -6 20 3 0 13 -14 21 -31z"/>
<path d="M870 1500 c0 -5 6 -10 13 -10 6 0 4 -5 -5 -11 -25 -14 -24 -33 1 -20
22 12 32 5 23 -17 -5 -15 -4 -15 20 0 20 13 28 14 31 5 2 -6 8 -9 12 -4 11 10
-1 20 -28 23 -12 1 -25 3 -29 3 -4 1 -10 10 -13 21 -7 21 -25 28 -25 10z"/>
<path d="M781 1464 c-10 -23 -10 -26 4 -20 9 3 19 6 21 6 2 0 4 5 4 11 0 5 -5
7 -12 3 -7 -5 -8 -3 -3 5 5 10 10 10 19 1 8 -8 7 -15 -7 -24 -16 -12 -16 -14
-1 -20 21 -8 26 -8 20 2 -2 4 -1 14 3 21 6 9 11 10 15 2 4 -6 3 -11 -2 -11 -5
0 -9 -7 -9 -15 0 -19 13 -19 21 0 6 18 -5 49 -19 52 -5 1 -17 4 -26 8 -10 4
-19 -3 -28 -21z"/>
<path d="M710 1462 c0 -7 -3 -11 -7 -11 -21 3 -33 -2 -28 -12 4 -6 10 -8 13
-5 3 3 11 1 19 -6 11 -8 12 -7 7 6 -3 9 -1 16 6 16 6 0 8 -4 5 -10 -9 -15 7
-12 29 5 11 8 17 18 13 21 -4 4 -13 2 -20 -4 -10 -9 -17 -8 -25 0 -9 9 -12 9
-12 0z"/>
<path d="M876 1444 c-9 -8 -14 -19 -11 -24 10 -16 -27 -19 -56 -5 -16 9 -29
12 -29 8 0 -5 -4 -1 -10 7 -7 12 -12 12 -29 -4 -17 -15 -23 -16 -36 -6 -8 7
-16 9 -16 4 -4 -31 -3 -40 5 -51 4 -7 5 -13 2 -13 -4 0 -2 -9 4 -20 6 -11 15
-18 21 -15 8 6 13 -9 10 -29 -1 -5 5 -6 13 -3 9 4 18 2 21 -2 2 -5 18 -7 34
-6 30 2 48 -16 34 -37 -3 -6 -1 -8 5 -4 6 3 13 2 17 -4 9 -15 25 -2 18 15 -3
8 0 15 7 15 6 0 9 -4 6 -9 -3 -4 2 -17 10 -27 9 -10 13 -14 10 -8 -3 6 3 19
13 28 20 18 22 63 3 59 -7 -2 -12 2 -12 9 0 6 -9 3 -20 -7 -21 -19 -20 -32 2
-19 20 13 38 13 38 2 0 -6 -7 -8 -15 -4 -13 5 -14 2 -4 -15 10 -19 9 -20 -10
-10 -11 6 -24 10 -28 10 -4 -1 -16 1 -26 6 -15 6 -16 10 -5 16 10 7 9 9 -4 9
-10 0 -18 -5 -18 -12 0 -6 -6 -3 -14 7 -11 16 -14 16 -22 3 -8 -13 -12 -13
-29 4 -15 14 -16 18 -3 13 9 -4 19 -2 23 4 4 7 0 8 -11 4 -12 -4 -15 -2 -12 8
3 8 12 13 21 11 15 -2 18 20 4 34 -15 15 -6 24 18 20 33 -6 47 -15 39 -27 -3
-6 5 -8 20 -5 23 4 25 2 16 -14 -13 -25 -12 -40 1 -17 6 9 14 15 20 12 12 -8
12 2 -1 25 -7 12 -17 17 -28 14 -13 -5 -14 -4 -3 4 8 6 27 9 43 7 16 -2 26 0
23 5 -3 5 -1 11 4 15 5 3 14 -2 18 -10 8 -14 11 -13 27 4 17 19 17 19 -16 16
-18 -2 -46 -6 -62 -10 -26 -5 -27 -4 -12 10 9 9 16 18 16 21 0 8 -9 4 -24 -12z
m-110 -49 c1 -14 -1 -25 -5 -25 -4 0 -13 -10 -20 -22 -9 -19 -11 -19 -6 -3 5
20 5 20 -10 1 -8 -11 -16 -15 -16 -8 -2 21 -4 27 -14 42 -8 13 -7 13 8 1 22
-18 22 -3 0 23 -17 20 -17 20 1 6 24 -19 49 -22 42 -5 -5 14 4 29 12 20 3 -3
7 -16 8 -30z m94 -135 c6 -11 8 -20 6 -20 -3 0 -10 9 -16 20 -6 11 -8 20 -6
20 3 0 10 -9 16 -20z"/>
<path d="M721 1368 c-11 -18 -11 -18 14 -2 29 19 30 21 11 21 -7 0 -19 -9 -25
-19z"/>
<path d="M787 1387 c12 -19 11 -30 -5 -57 -10 -17 -10 -21 -2 -13 11 10 17 10
29 0 11 -9 13 -9 8 0 -5 8 0 11 13 10 11 -1 21 -5 21 -9 1 -4 2 -12 3 -17 0
-5 4 -12 9 -15 4 -3 5 -3 2 1 -9 11 36 52 52 46 10 -4 14 0 11 13 -2 11 -7 22
-11 25 -5 3 -1 9 8 12 11 5 14 3 9 -5 -5 -8 -2 -9 10 -5 12 5 15 3 10 -6 -5
-9 -4 -9 6 0 18 17 8 25 -37 29 -20 1 -33 0 -27 -4 15 -10 11 -47 -4 -44 -8 1
-11 -2 -8 -7 3 -5 -1 -12 -9 -15 -17 -6 -31 16 -21 32 3 6 -2 9 -12 8 -9 0
-16 5 -14 12 1 6 -1 12 -5 13 -5 0 -16 2 -26 4 -11 2 -14 -1 -10 -8z m53 -51
c0 -6 -5 -4 -10 4 -9 13 -11 13 -20 0 -11 -17 -13 -10 -4 14 5 13 9 14 20 5 8
-6 14 -17 14 -23z"/>
<path d="M940 1345 c7 -8 17 -12 22 -9 6 4 5 10 -3 15 -22 14 -33 10 -19 -6z"/>
<path d="M610 1306 c0 -2 8 -10 18 -17 15 -13 16 -12 3 4 -13 16 -21 21 -21
13z"/>
<path d="M702 1264 c10 -10 20 -16 22 -13 3 3 -5 11 -17 18 -21 13 -21 12 -5
-5z"/>
<path d="M785 1210 c-3 -5 -11 -7 -17 -4 -7 4 -8 2 -4 -5 6 -9 11 -9 22 0 13
10 18 6 15 -13 -1 -8 27 -4 34 5 3 4 2 5 -2 2 -3 -3 -14 2 -24 11 -11 10 -19
12 -24 4z"/>
<path d="M630 1160 c0 -5 5 -10 10 -10 6 0 10 5 10 10 0 6 -4 10 -10 10 -5 0
-10 -4 -10 -10z"/>
<path d="M470 1089 c0 -5 5 -7 10 -4 6 3 10 8 10 11 0 2 -4 4 -10 4 -5 0 -10
-5 -10 -11z"/>
<path d="M530 1075 c-13 -14 -19 -25 -14 -25 5 0 16 9 24 19 7 11 17 18 22 15
4 -3 8 0 8 5 0 18 -15 12 -40 -14z"/>
<path d="M542 1047 c-31 -33 -27 -43 4 -12 14 14 24 28 22 31 -3 2 -14 -6 -26
-19z"/>
<path d="M482 1056 c3 -4 -2 -16 -13 -27 -23 -23 -17 -40 14 -35 28 4 34 38
10 57 -10 7 -15 10 -11 5z m18 -34 c0 -11 -8 -18 -20 -19 -24 -2 -25 1 -4 21
20 20 24 20 24 -2z"/>
<path d="M588 1043 c7 -3 16 -2 19 1 4 3 -2 6 -13 5 -11 0 -14 -3 -6 -6z"/>
<path d="M561 1029 c-1 -21 24 -43 41 -36 8 4 7 6 -4 6 -12 1 -16 7 -12 19 5
13 4 14 -4 3 -8 -11 -11 -10 -15 5 -4 14 -5 15 -6 3z"/>
<path d="M600 1020 c0 -5 5 -10 10 -10 6 0 10 5 10 10 0 6 -4 10 -10 10 -5 0
-10 -4 -10 -10z"/>
<path d="M705 1014 c8 -8 12 -22 9 -32 -5 -14 -4 -15 5 -2 9 12 11 13 11 1 0
-8 3 -12 6 -9 3 4 1 16 -6 27 -6 12 -7 21 -1 21 5 0 12 -7 15 -16 3 -8 10 -13
15 -10 5 4 12 -2 15 -11 4 -14 4 -13 2 2 -1 11 -8 19 -15 17 -8 -2 -11 3 -8
11 3 9 -5 13 -29 14 -28 0 -31 -1 -19 -13z"/>
<path d="M626 990 c-7 -17 -15 -27 -19 -24 -4 4 -9 -1 -13 -10 -3 -9 -10 -14
-14 -11 -5 3 -7 -3 -6 -12 4 -26 43 -24 61 3 21 32 19 45 -3 14 -9 -14 -25
-26 -35 -28 -15 -3 -16 0 -5 17 6 11 16 19 20 18 5 -1 15 13 23 31 8 17 12 32
9 32 -3 0 -11 -14 -18 -30z"/>
<path d="M536 1002 c-7 -12 -1 -45 10 -49 6 -2 19 4 29 12 19 16 19 16 -2 6
-29 -14 -28 -14 -30 10 -2 18 0 19 15 7 15 -12 16 -11 3 5 -15 19 -18 20 -25
9z"/>
<path d="M680 1000 c-13 -8 -12 -10 3 -10 9 0 17 5 17 10 0 12 -1 12 -20 0z"/>
<path d="M442 984 c10 -10 20 -16 22 -13 3 3 -5 11 -17 18 -21 13 -21 12 -5
-5z"/>
<path d="M650 991 c0 -13 39 -35 48 -27 3 3 0 6 -6 6 -6 0 -18 7 -26 16 -9 8
-16 11 -16 5z"/>
<path d="M511 974 c0 -11 3 -14 6 -6 3 7 2 16 -1 19 -3 4 -6 -2 -5 -13z"/>
<path d="M800 980 c-8 -5 -12 -12 -9 -15 4 -3 12 1 19 10 14 17 11 19 -10 5z"/>
<path d="M750 971 c0 -10 19 -25 25 -20 1 2 -3 10 -11 17 -8 7 -14 8 -14 3z"/>
<path d="M424 959 c-4 -7 -3 -9 4 -5 5 3 13 0 15 -6 4 -9 6 -10 6 -1 1 17 -16
25 -25 12z"/>
<path d="M509 933 c12 -8 25 -12 28 -9 4 3 1 6 -6 6 -7 0 -10 4 -7 8 2 4 -5 9
-16 9 -21 2 -21 2 1 -14z"/>
<path d="M660 940 c0 -5 5 -10 10 -10 6 0 10 5 10 10 0 6 -4 10 -10 10 -5 0
-10 -4 -10 -10z"/>
<path d="M693 940 c2 -8 -5 -20 -16 -26 -18 -10 -19 -11 -1 -18 10 -4 15 -4
11 0 -4 4 0 12 8 18 11 8 12 15 4 26 -9 13 -10 13 -6 0z"/>
<path d="M470 930 c8 -5 20 -10 25 -10 6 0 3 5 -5 10 -8 5 -19 10 -25 10 -5 0
-3 -5 5 -10z"/>
<path d="M626 898 c-9 -18 -11 -25 -3 -16 8 10 16 16 18 13 3 -2 5 5 6 15 2
27 0 25 -21 -12z"/>
<path d="M715 910 c-3 -5 -1 -10 4 -10 6 0 11 5 11 10 0 6 -2 10 -4 10 -3 0
-8 -4 -11 -10z"/>
<path d="M490 906 c0 -2 7 -7 16 -10 8 -3 12 -2 9 4 -6 10 -25 14 -25 6z"/>
<path d="M530 895 c0 -8 2 -15 4 -15 2 0 6 7 10 15 3 8 1 15 -4 15 -6 0 -10
-7 -10 -15z"/>
<path d="M556 895 c-9 -26 -7 -32 5 -12 6 10 9 21 6 23 -2 3 -7 -2 -11 -11z"/>
<path d="M584 884 c-18 -14 -18 -15 4 -4 12 6 22 13 22 15 0 8 -5 6 -26 -11z"/>
<path d="M696 883 c-8 -9 21 -46 39 -49 8 -1 13 2 9 7 -3 5 -9 7 -13 5 -4 -3
-13 4 -19 15 -11 17 -10 20 5 17 10 -2 24 -10 31 -18 11 -13 12 -12 3 5 -9 19
-42 30 -55 18z"/>
<path d="M481 856 c-9 -11 -9 -16 0 -22 8 -5 9 -3 4 6 -6 10 -4 12 8 7 11 -4
14 -2 10 9 -6 17 -8 17 -22 0z"/>
<path d="M593 855 c0 -7 6 -11 14 -8 7 3 13 6 13 8 0 2 -6 5 -13 8 -8 3 -14
-1 -14 -8z"/>
<path d="M657 855 c-4 -8 -1 -17 5 -21 7 -4 8 -3 4 4 -4 7 -2 12 3 12 6 0 11
5 11 10 0 15 -17 12 -23 -5z"/>
<path d="M428 843 c6 -3 10 -9 6 -14 -8 -14 2 -11 14 4 8 10 6 13 -11 14 -12
0 -16 -1 -9 -4z"/>
<path d="M530 826 c0 -8 4 -17 9 -20 5 -4 7 3 4 14 -6 23 -13 26 -13 6z"/>
<path d="M379 813 c-13 -16 -12 -17 4 -4 14 11 20 11 35 0 15 -13 16 -12 3 4
-7 9 -17 17 -21 17 -4 0 -14 -8 -21 -17z"/>
<path d="M499 813 c-13 -16 -12 -17 4 -4 9 7 17 15 17 17 0 8 -8 3 -21 -13z"/>
<path d="M560 820 c18 -12 30 -13 30 -2 0 4 -10 9 -22 9 -18 2 -20 0 -8 -7z"/>
<path d="M627 824 c-4 -4 -7 -12 -7 -18 0 -6 5 -4 10 4 9 13 11 13 21 0 9 -12
10 -12 7 -1 -5 17 -21 25 -31 15z"/>
<path d="M675 820 c-3 -5 -1 -10 4 -10 6 0 11 5 11 10 0 6 -2 10 -4 10 -3 0
-8 -4 -11 -10z"/>
<path d="M361 776 c-9 -11 -9 -16 1 -22 7 -4 10 -4 6 1 -4 4 -3 14 3 22 6 7 9
13 6 13 -2 0 -10 -6 -16 -14z"/>
<path d="M416 773 c-6 -14 -5 -15 5 -6 7 7 10 15 7 18 -3 3 -9 -2 -12 -12z"/>
<path d="M510 782 c0 -4 11 -8 25 -8 28 0 24 8 -5 13 -11 2 -20 -1 -20 -5z"/>
<path d="M612 751 c-11 -6 -10 -10 0 -19 11 -8 14 -7 14 9 0 10 0 19 -1 19 0
0 -6 -4 -13 -9z"/>
<path d="M654 739 c0 -14 3 -16 16 -6 8 6 16 12 18 13 1 1 -5 4 -15 6 -13 4
-19 0 -19 -13z"/>
<path d="M310 720 c0 -5 5 -10 11 -10 5 0 7 5 4 10 -3 6 -8 10 -11 10 -2 0 -4
-4 -4 -10z"/>
<path d="M466 718 c3 -4 9 -8 15 -8 5 0 9 4 9 8 0 5 -7 9 -15 9 -8 0 -12 -4
-9 -9z"/>
<path d="M559 713 c-13 -16 -12 -17 4 -4 9 7 17 15 17 17 0 8 -8 3 -21 -13z"/>
<path d="M679 713 c-13 -16 -12 -17 4 -4 16 13 21 21 13 21 -2 0 -10 -8 -17
-17z"/>
<path d="M650 701 c0 -6 4 -13 10 -16 6 -3 7 1 4 9 -7 18 -14 21 -14 7z"/>
<path d="M435 660 c3 -5 8 -10 11 -10 2 0 4 5 4 10 0 6 -5 10 -11 10 -5 0 -7
-4 -4 -10z"/>
<path d="M545 660 c-3 -6 1 -7 9 -4 18 7 21 14 7 14 -6 0 -13 -4 -16 -10z"/>
<path d="M373 643 c4 -3 1 -13 -6 -22 -11 -14 -10 -14 5 -2 16 12 16 31 1 31
-4 0 -3 -3 0 -7z"/>
<path d="M634 636 c1 -8 5 -18 8 -22 4 -3 5 1 4 10 -1 8 -5 18 -8 22 -4 3 -5
-1 -4 -10z"/>
<path d="M433 627 c0 -8 6 -14 14 -14 9 0 10 4 2 14 -6 7 -12 13 -14 13 -1 0
-2 -6 -2 -13z"/>
<path d="M490 600 c0 -5 5 -10 11 -10 5 0 7 5 4 10 -3 6 -8 10 -11 10 -2 0 -4
-4 -4 -10z"/>
<path d="M396 567 c3 -10 9 -15 12 -12 3 3 0 11 -7 18 -10 9 -11 8 -5 -6z"/>
<path d="M510 539 c0 -5 5 -7 10 -4 6 3 10 8 10 11 0 2 -4 4 -10 4 -5 0 -10
-5 -10 -11z"/>
<path d="M530 499 c0 -5 5 -7 10 -4 6 3 10 8 10 11 0 2 -4 4 -10 4 -5 0 -10
-5 -10 -11z"/>
<path d="M2391 2259 c-12 -10 -27 -17 -31 -14 -4 3 -13 -2 -19 -9 -9 -11 -9
-16 0 -22 8 -4 9 -3 5 4 -4 7 -2 12 3 12 6 0 11 -4 11 -10 0 -5 10 -14 23 -21
21 -11 21 -10 5 6 -15 16 -15 19 10 40 33 28 26 41 -7 14z"/>
<path d="M2264 2225 c-9 -14 -21 -25 -28 -24 -7 0 -6 2 2 6 6 2 12 9 12 15 0
6 -7 5 -16 -3 -14 -12 -14 -14 2 -26 10 -7 14 -13 10 -13 -5 0 -3 -6 4 -14 6
-8 18 -12 26 -9 13 5 13 8 0 28 -13 20 -13 25 0 41 10 14 13 15 9 3 -3 -9 1
-22 10 -29 12 -10 15 -10 15 0 0 10 3 10 14 0 8 -6 13 -17 10 -24 -2 -6 5 -12
17 -13 17 -2 18 1 9 13 -17 19 -5 18 19 -2 11 -10 17 -23 14 -31 -4 -10 -9
-11 -19 -2 -7 6 -19 7 -25 3 -8 -5 -10 -3 -4 7 5 8 5 11 0 7 -4 -4 -17 -3 -28
3 -15 9 -18 8 -12 -2 5 -8 4 -10 -3 -5 -8 5 -10 1 -6 -11 5 -15 4 -15 -5 -3
-5 8 -13 11 -18 7 -8 -9 17 -28 28 -21 4 2 9 -2 12 -8 3 -10 9 -8 24 4 17 16
22 16 39 3 12 -9 14 -14 6 -15 -8 0 -10 -5 -5 -12 4 -7 8 -16 8 -20 0 -10 15
-12 23 -2 4 4 0 3 -8 -1 -13 -7 -13 -6 -2 7 7 9 9 18 5 20 -4 3 -2 3 5 1 7 -1
10 2 7 7 -3 6 -1 10 4 10 6 0 11 -8 11 -17 0 -14 2 -15 9 -5 6 10 10 9 14 -7
4 -15 10 -19 24 -14 10 3 15 3 12 -1 -4 -4 -19 -9 -35 -12 -19 -3 -24 -1 -16
4 11 7 10 10 -3 16 -9 3 -18 6 -19 6 -1 0 -2 -10 -3 -21 -1 -12 1 -19 4 -15 8
8 45 -13 39 -23 -3 -4 1 -8 9 -8 7 0 12 8 10 19 -2 10 0 18 5 18 14 0 31 37
24 54 -5 12 -11 13 -24 6 -10 -6 -25 -7 -34 -4 -17 6 -51 54 -39 54 11 1 -49
34 -67 36 -8 2 -16 8 -18 14 -2 5 -12 15 -23 20 -15 8 -21 5 -35 -15z m6 -46
c0 -5 -4 -9 -8 -9 -5 0 -9 7 -9 15 0 8 4 12 9 9 4 -3 8 -9 8 -15z m61 -42 c-1
-12 -15 -9 -19 4 -3 6 1 10 8 8 6 -3 11 -8 11 -12z"/>
<path d="M2281 2193 c7 -12 15 -20 18 -17 3 2 -3 12 -13 22 -17 16 -18 16 -5
-5z"/>
<path d="M2310 2179 c0 -5 5 -7 10 -4 6 3 10 8 10 11 0 2 -4 4 -10 4 -5 0 -10
-5 -10 -11z"/>
<path d="M2204 1573 c-15 -21 -30 -40 -33 -43 -31 -27 -211 -283 -211 -299 0
-11 7 -35 15 -53 16 -37 42 -103 180 -463 182 -475 186 -484 203 -489 9 -3 97
-8 194 -11 235 -7 244 -2 194 127 -13 35 -35 92 -49 128 -14 36 -48 126 -77
200 -28 74 -59 153 -67 175 -8 22 -19 49 -24 60 -4 11 -24 63 -44 115 -171
455 -226 590 -240 590 -7 0 -25 -17 -41 -37z m226 -569 c0 -8 -19 -13 -24 -6
-3 5 1 9 9 9 8 0 15 -2 15 -3z m-45 -43 c3 -5 2 -12 -3 -15 -5 -3 -9 1 -9 9 0
17 3 19 12 6z m-159 -37 c1 -9 0 -13 -4 -10 -3 4 -7 14 -8 22 -1 9 0 13 4 10
3 -4 7 -14 8 -22z m135 9 c13 -16 12 -17 -3 -4 -17 13 -22 21 -14 21 2 0 10
-8 17 -17z m50 -16 c-6 -8 -7 -18 -3 -22 4 -5 1 -5 -6 -1 -10 6 -10 11 -1 22
6 8 14 14 16 14 3 0 0 -6 -6 -13z m36 6 c-4 -3 -1 -13 6 -22 11 -14 10 -14 -5
-2 -16 12 -16 31 -1 31 4 0 3 -3 0 -7z m38 -11 c-3 -3 -11 0 -18 7 -9 10 -8
11 6 5 10 -3 15 -9 12 -12z m-319 -18 c1 -9 0 -13 -4 -10 -3 4 -7 14 -8 22 -1
9 0 13 4 10 3 -4 7 -14 8 -22z m115 -1 c12 -16 12 -17 -2 -6 -9 7 -20 9 -24 5
-5 -4 -5 -1 -1 6 9 16 11 15 27 -5z m99 11 c0 -8 -19 -13 -24 -6 -3 5 1 9 9 9
8 0 15 -2 15 -3z m-46 -22 c2 -4 -4 -8 -14 -8 -10 0 -16 4 -14 8 3 4 9 8 14 8
5 0 11 -4 14 -8z m89 -18 c-2 -6 -10 -11 -18 -11 -8 0 -12 4 -9 8 2 4 -2 9 -8
12 -7 2 -1 4 13 3 15 0 25 -6 22 -12z m34 -16 c-3 -7 -5 -2 -5 12 0 14 2 19 5
13 2 -7 2 -19 0 -25z m-203 14 c3 -5 -1 -9 -9 -9 -8 0 -12 4 -9 9 3 4 7 8 9 8
2 0 6 -4 9 -8z m250 -14 c-5 -8 -2 -9 9 -5 10 3 17 2 17 -3 0 -12 -27 -13 -34
-1 -3 4 -3 11 1 15 10 10 15 7 7 -6z m-354 -8 c0 -5 -2 -10 -4 -10 -3 0 -8 5
-11 10 -3 6 -1 10 4 10 6 0 11 -4 11 -10z m340 -25 c0 -5 -5 -3 -10 5 -5 8
-10 20 -10 25 0 6 5 3 10 -5 5 -8 10 -19 10 -25z m-206 -4 c-2 -3 -12 3 -22
13 -16 17 -16 18 5 5 12 -7 20 -15 17 -18z m-81 1 c15 -16 15 -19 2 -19 -8 0
-13 3 -10 5 3 3 0 11 -6 19 -17 20 -5 16 14 -5z m234 -4 c-3 -8 -6 -5 -6 6 -1
11 2 17 5 13 3 -3 4 -12 1 -19z m28 2 c-3 -4 2 -10 10 -14 8 -3 17 -1 20 4 12
19 31 10 50 -22 10 -18 17 -34 15 -34 -3 -1 4 -12 15 -25 11 -12 14 -19 8 -15
-8 4 -13 2 -13 -5 0 -7 -3 -9 -6 -6 -10 9 -46 -12 -39 -24 4 -5 11 -9 16 -9 6
0 8 4 4 9 -3 5 0 13 6 17 8 5 9 3 4 -7 -8 -12 -6 -12 9 0 15 12 19 12 34 -4 9
-10 11 -15 5 -11 -7 4 -13 3 -13 -2 0 -6 7 -12 15 -16 9 -3 12 -12 8 -22 -4
-12 -3 -15 5 -10 18 11 14 0 -5 -15 -14 -12 -16 -12 -8 0 6 10 4 12 -5 6 -9
-6 -11 -4 -5 5 6 9 4 11 -6 6 -8 -4 -5 0 5 8 11 9 15 16 9 16 -7 0 -14 -4 -18
-9 -3 -5 -18 -8 -33 -5 -24 4 -25 3 -9 -10 21 -16 22 -23 2 -23 -8 0 -11 5 -8
11 4 6 -4 2 -17 -9 -13 -11 -20 -15 -17 -8 5 7 1 10 -10 8 -10 -1 -17 -8 -15
-16 2 -10 0 -10 -11 0 -8 6 -17 8 -19 4 -3 -4 -3 -3 -2 4 2 6 -5 17 -14 25
-15 11 -16 11 -7 -2 6 -9 2 -7 -7 3 -10 11 -18 16 -18 11 0 -4 7 -16 17 -26
20 -23 10 -36 -14 -17 -17 13 -17 13 -3 -6 14 -18 13 -19 -1 -8 -9 7 -19 10
-22 6 -4 -3 -7 0 -7 7 0 9 -5 7 -15 -6 -10 -12 -13 -14 -10 -3 4 10 -3 20 -20
27 -33 15 -34 15 -30 -5 2 -10 4 -20 4 -23 1 -3 5 1 10 9 5 7 14 10 21 6 8 -5
7 -12 -5 -25 -10 -11 -14 -24 -9 -31 5 -8 3 -10 -7 -5 -8 4 -6 1 4 -7 12 -10
14 -17 8 -22 -6 -3 -11 -1 -11 5 0 6 -5 8 -11 4 -8 -4 -3 -12 12 -21 14 -9 17
-12 6 -9 -29 9 -40 -4 -21 -25 10 -11 12 -19 6 -19 -7 0 -12 -5 -12 -11 0 -6
5 -7 13 -2 22 13 39 12 33 -3 -9 -23 8 -16 19 9 6 12 19 22 30 23 47 2 48 3
35 19 -14 17 -3 20 20 5 13 -9 12 -13 -7 -29 -12 -10 -19 -21 -16 -25 4 -3 1
-6 -5 -6 -6 0 -14 5 -17 10 -3 6 -12 10 -18 10 -7 0 -4 -6 5 -14 10 -7 15 -16
11 -19 -3 -4 -3 -7 1 -7 17 0 66 63 62 78 -7 22 4 37 27 39 11 0 16 -4 13 -12
-6 -16 18 -27 39 -19 11 5 12 9 2 25 -7 11 -18 17 -25 14 -9 -3 -11 1 -7 14 3
11 1 22 -5 26 -5 3 -10 11 -10 16 0 6 12 1 27 -11 15 -12 28 -29 28 -37 0 -9
6 -18 13 -20 6 -3 12 0 12 7 0 6 -4 8 -10 5 -5 -3 -10 -3 -10 0 0 7 29 39 31
33 10 -38 -2 -69 -31 -81 -12 -4 -12 -6 2 -6 22 -1 48 37 40 58 -5 13 -3 14
10 3 13 -10 17 -10 22 3 3 10 11 13 18 9 9 -5 9 -3 -1 9 -9 11 -10 17 -2 17
11 0 15 -13 12 -39 -2 -8 2 -10 10 -5 7 4 10 3 6 -3 -3 -5 0 -21 8 -36 8 -15
10 -27 4 -27 -5 0 -9 -4 -9 -10 0 -5 8 -7 18 -3 9 3 14 3 10 -2 -4 -4 -4 -13
1 -19 5 -6 14 -28 21 -49 7 -22 18 -51 26 -65 18 -35 18 -42 -3 -64 -21 -23
-40 -24 -22 0 13 16 12 16 -4 3 -10 -8 -35 -14 -55 -14 -20 1 -78 3 -129 4
-51 1 -90 6 -88 9 3 4 -5 16 -18 26 l-22 19 19 -22 c11 -13 17 -24 15 -24 -24
-7 -60 -6 -64 2 -4 5 -10 7 -15 4 -4 -3 -13 9 -19 25 -5 17 -6 28 -1 25 4 -3
7 2 6 12 -2 9 -11 20 -22 24 -10 4 -15 8 -11 8 4 1 3 10 -3 22 -9 15 -8 24 1
36 11 12 10 14 -7 11 -13 -2 -19 2 -18 15 1 9 -3 17 -9 17 -6 0 -7 3 -4 7 4 3
2 12 -4 20 -6 7 -8 13 -4 13 4 0 2 7 -5 15 -7 8 -9 15 -5 15 4 0 2 7 -5 15 -7
8 -9 15 -5 15 4 0 2 7 -5 15 -7 8 -9 15 -5 15 4 0 2 7 -5 15 -11 13 -10 14 4
9 10 -4 15 -13 12 -20 -8 -22 0 -17 18 10 14 23 14 25 -2 25 -35 1 -52 4 -47
9 3 3 1 10 -4 16 -6 7 -3 19 9 33 14 18 19 19 23 9 4 -9 14 -12 26 -9 20 5 26
-4 22 -34 -1 -7 2 -13 8 -13 15 0 19 23 9 43 -5 10 -7 21 -4 25 3 3 6 0 6 -6
0 -7 6 -12 14 -12 8 0 16 -5 18 -11 2 -6 10 2 18 18 22 42 42 54 56 35 7 -9
10 -22 7 -29 -3 -9 0 -11 10 -7 9 3 21 -3 30 -16 10 -14 17 -18 22 -10 7 11
-21 39 -38 40 -5 0 -6 4 -3 9 3 5 -1 11 -9 15 -8 3 -15 13 -14 23 0 16 1 16 9
-2 5 -11 9 -15 9 -10 1 6 5 4 10 -4 5 -8 11 -9 15 -3 3 6 -8 22 -25 36 -17 15
-29 30 -25 33 4 4 13 -3 22 -15 16 -23 42 -26 57 -7 5 6 6 1 3 -10 -8 -28 4
-40 42 -42 28 -2 32 0 22 13 -7 7 -9 14 -4 14 4 0 3 5 -4 12 -9 9 -15 9 -24
-1 -10 -11 -10 -13 0 -7 6 4 12 2 12 -3 0 -6 -7 -11 -16 -11 -9 0 -14 6 -11
13 7 18 -7 40 -28 43 -21 3 -28 10 -31 29 -1 8 2 13 7 9 5 -3 7 -9 4 -14z
m-69 1 c8 7 14 7 14 1 0 -12 -26 -23 -34 -15 -3 4 -6 11 -5 17 0 6 3 5 6 -2 4
-10 8 -10 19 -1z m-30 -47 c-3 -9 -10 -12 -16 -9 -5 3 -10 2 -10 -4 0 -17 22
-24 31 -10 4 7 11 10 15 6 4 -4 -2 -14 -14 -23 -12 -8 -20 -19 -17 -24 3 -5 1
-11 -5 -15 -11 -7 -59 25 -60 39 0 5 8 2 17 -5 15 -12 16 -12 10 4 -4 11 -3
16 3 12 6 -4 9 -14 8 -22 -2 -9 2 -18 8 -20 13 -4 15 28 2 44 -12 15 -1 36 14
27 7 -5 9 2 4 22 -5 24 -4 26 5 11 6 -10 8 -25 5 -33z m-186 32 c0 -2 -7 -7
-16 -10 -8 -3 -12 -2 -9 4 6 10 25 14 25 6z m85 -6 c-3 -5 -14 -10 -23 -9 -14
0 -13 2 3 9 27 11 27 11 20 0z m63 -20 c-7 -10 -14 -18 -15 -16 -6 6 9 36 18
36 5 0 4 -9 -3 -20z m137 2 c-3 -3 -11 0 -18 7 -9 10 -8 11 6 5 10 -3 15 -9
12 -12z m-55 -27 c0 -5 -5 -3 -10 5 -5 8 -10 20 -10 25 0 6 5 3 10 -5 5 -8 10
-19 10 -25z m-180 -1 c0 -8 -19 -13 -24 -6 -3 5 1 9 9 9 8 0 15 -2 15 -3z m40
-4 c0 -5 -4 -10 -10 -10 -5 0 -10 5 -10 10 0 6 5 10 10 10 6 0 10 -4 10 -10z
m-89 -23 c-10 -9 -11 -8 -5 6 3 10 9 15 12 12 3 -3 0 -11 -7 -18z m83 -36 c-5
-6 -33 31 -33 44 -1 6 8 -1 19 -15 10 -14 17 -27 14 -29z m-48 12 c-4 -4 -12
-1 -19 7 -9 10 -9 11 1 6 7 -4 12 -2 13 6 0 11 2 11 6 0 3 -7 2 -16 -1 -19z
m74 -8 c0 -5 -5 -3 -10 5 -5 8 -10 20 -10 25 0 6 5 3 10 -5 5 -8 10 -19 10
-25z m310 -108 c0 -5 -7 -4 -15 3 -8 7 -16 9 -16 4 -1 -5 -2 -13 -4 -19 -1 -5
-3 -14 -4 -20 -1 -5 -8 -1 -17 10 -8 11 -17 19 -19 18 -3 -2 -5 0 -5 5 0 4 10
7 23 7 15 0 22 6 21 18 -2 17 -1 17 17 1 10 -9 19 -21 19 -27z m31 -4 c-5 -10
-9 -22 -10 -28 -2 -18 -23 -10 -39 15 -11 18 -12 21 -2 13 19 -17 30 -16 30 2
0 8 7 15 15 15 12 0 13 -4 6 -17z m-231 -13 c3 -1 10 -1 15 0 41 9 54 8 69 -3
17 -12 13 -47 -5 -47 -14 0 -11 18 4 23 6 2 8 8 4 13 -4 5 -12 2 -17 -6 -9
-14 -15 -6 -11 14 1 5 -5 4 -13 -3 -16 -14 -12 -36 5 -26 14 9 11 -9 -5 -31
-15 -19 -15 -19 -15 1 -1 41 -5 55 -14 55 -5 0 -7 -7 -4 -14 4 -10 1 -13 -8
-9 -8 3 -12 10 -8 16 4 6 1 7 -7 2 -8 -5 -11 -4 -6 3 7 11 -20 11 -29 -1 -3
-4 -2 -5 2 -2 8 6 33 -14 33 -27 0 -6 -6 -5 -15 2 -19 16 -40 3 -24 -16 6 -8
8 -14 3 -14 -5 0 -2 -5 6 -10 10 -6 11 -10 3 -10 -7 0 -13 -5 -13 -11 0 -8 4
-8 14 0 8 7 12 21 9 34 -5 21 -5 21 9 3 12 -15 17 -16 23 -6 5 9 4 11 -3 6 -7
-4 -12 -3 -12 3 0 15 14 21 28 12 10 -6 10 -11 -2 -20 -8 -7 -12 -20 -9 -28 5
-13 2 -15 -12 -9 -11 4 -25 0 -36 -10 -11 -10 -20 -13 -20 -8 -1 5 -3 25 -5
44 -2 19 -4 44 -6 55 -2 11 2 20 9 20 6 0 14 3 18 7 5 5 28 4 45 -2z m130 -71
c0 -5 -4 -9 -10 -9 -5 0 -10 7 -10 16 0 8 5 12 10 9 6 -3 10 -10 10 -16z
m-210 -34 c20 -24 6 -28 -15 -5 -10 11 -13 20 -8 20 6 0 16 -7 23 -15z"/>
<path d="M2512 781 c7 -11 16 -17 20 -14 10 5 -10 33 -23 33 -5 0 -4 -9 3 -19z"/>
<path d="M2474 739 c2 -9 -1 -22 -7 -28 -9 -9 -6 -17 13 -31 20 -15 22 -21 13
-31 -18 -18 -46 -21 -39 -4 7 19 -14 31 -24 14 -10 -15 -40 -21 -40 -8 0 6 -6
7 -12 3 -9 -5 -9 -2 1 9 8 11 9 17 3 17 -10 0 -32 -30 -32 -44 0 -3 8 -3 18
-1 12 2 18 -3 18 -17 0 -17 -2 -18 -12 -3 -8 11 -14 12 -19 5 -9 -14 -25 -3
-19 14 3 8 -1 17 -8 22 -7 4 -10 4 -6 -1 4 -4 3 -16 -2 -25 -8 -14 -5 -19 13
-25 12 -4 31 -8 42 -9 11 -1 27 -6 35 -11 9 -5 7 0 -4 14 -31 34 -6 48 31 17
17 -14 33 -22 37 -18 4 4 17 7 29 7 13 0 22 6 22 15 0 10 10 15 29 15 23 0 30
5 31 23 2 21 1 21 -22 6 -19 -12 -27 -13 -39 -3 -10 8 -12 15 -4 23 15 15 12
29 -5 22 -9 -3 -21 5 -31 22 -8 15 -13 20 -10 11z m37 -44 c10 6 11 5 3 -4
-12 -14 -47 -4 -38 11 4 6 9 6 14 -2 5 -7 14 -9 21 -5z m10 -59 c-6 -7 -8 -15
-5 -19 3 -3 -2 -4 -13 -3 -10 2 -23 0 -29 -5 -7 -6 -18 -1 -30 13 -12 13 -13
18 -4 13 25 -15 38 -14 56 6 18 20 42 15 25 -5z m53 16 c3 -5 -1 -9 -9 -9 -8
0 -12 4 -9 9 3 4 7 8 9 8 2 0 6 -4 9 -8z"/>
<path d="M2499 633 c-13 -16 -12 -17 4 -4 9 7 17 15 17 17 0 8 -8 3 -21 -13z"/>
<path d="M2385 701 c-7 -12 12 -24 25 -16 11 7 4 25 -10 25 -5 0 -11 -4 -15
-9z"/>
<path d="M2220 655 c-9 -11 -8 -14 9 -12 22 1 28 12 12 21 -5 3 -14 -1 -21 -9z"/>
<path d="M2390 666 c0 -2 7 -6 15 -10 8 -3 15 -1 15 4 0 6 -7 10 -15 10 -8 0
-15 -2 -15 -4z"/>
<path d="M2256 644 c-3 -8 -10 -12 -16 -9 -5 3 -10 1 -10 -4 0 -6 3 -11 8 -12
4 0 17 -2 30 -3 16 -2 19 1 12 8 -14 14 -13 29 2 20 7 -4 8 -3 4 4 -10 17 -23
15 -30 -4z"/>
<path d="M2275 590 c-3 -5 -3 -10 2 -10 4 0 1 -5 -7 -10 -17 -11 -20 -30 -7
-47 5 -7 6 -13 2 -13 -4 0 -2 -6 4 -13 6 -8 7 -18 3 -22 -4 -5 -1 -5 6 -1 7 4
10 11 7 16 -3 5 -1 11 4 14 12 8 7 41 -7 41 -6 0 -14 3 -17 7 -4 4 4 5 18 3
16 -3 29 1 38 13 12 15 12 16 -2 4 -13 -10 -18 -10 -28 1 -6 8 -8 17 -4 20 3
4 4 7 0 7 -3 0 -9 -4 -12 -10z m11 -66 c-1 -8 -6 -17 -12 -21 -5 -4 -6 -4 -2
1 4 5 3 14 -2 21 -7 8 -5 12 4 12 8 0 13 -6 12 -13z"/>
<path d="M2633 507 c3 -9 2 -19 -3 -22 -4 -3 -11 1 -13 7 -4 9 -6 10 -6 1 -1
-18 12 -23 30 -9 15 10 15 13 1 26 -14 13 -15 12 -9 -3z"/>
<path d="M2470 481 c0 -13 39 -35 48 -27 3 3 0 6 -6 6 -6 0 -18 7 -26 16 -9 8
-16 11 -16 5z"/>
<path d="M2592 454 c2 -8 7 -14 11 -12 5 2 13 -5 18 -14 11 -20 29 -24 29 -7
0 5 -4 8 -9 5 -5 -3 -12 1 -15 10 -3 9 -11 12 -18 8 -8 -5 -9 -2 -5 9 3 10 2
17 -4 17 -6 0 -9 -7 -7 -16z"/>
<path d="M2634 458 c-4 -6 -3 -8 4 -4 5 3 13 0 15 -6 3 -8 6 -6 6 5 1 19 -14
23 -25 5z"/>
<path d="M2464 426 c-3 -14 -10 -23 -15 -20 -5 3 -12 -2 -15 -10 -3 -9 -11
-13 -17 -9 -6 3 -7 1 -3 -5 10 -17 26 -15 26 4 0 8 5 12 10 9 6 -3 15 6 21 22
l12 28 6 -24 c5 -18 14 -25 33 -25 15 -1 24 2 21 7 -3 5 -14 7 -24 4 -12 -3
-19 1 -21 16 -4 30 -26 32 -34 3z"/>
<path d="M2542 436 c10 -7 15 -16 11 -19 -3 -4 -1 -7 5 -7 7 0 12 4 12 8 0 12
-22 32 -34 32 -6 0 -3 -7 6 -14z"/>
<path d="M2371 390 c14 -31 19 -36 19 -24 0 6 -7 19 -16 30 -14 18 -14 18 -3
-6z"/>
<path d="M2611 403 c3 -19 -2 -27 -10 -15 -7 11 -9 11 -14 -1 -6 -17 17 -17
34 0 8 8 8 13 0 18 -6 3 -11 3 -10 -2z"/>
<path d="M2678 403 c7 -3 16 -2 19 1 4 3 -2 6 -13 5 -11 0 -14 -3 -6 -6z"/>
<path d="M2659 387 c8 -9 16 -15 19 -12 3 3 12 -1 21 -8 14 -11 14 -10 2 6 -8
9 -16 15 -19 12 -3 -3 -12 1 -21 8 -14 11 -14 10 -2 -6z"/>
<path d="M2321 372 c0 -11 2 -13 6 -4 4 10 9 9 24 -4 11 -10 19 -12 19 -6 0 7
-5 12 -11 12 -5 0 -8 4 -5 8 2 4 -4 9 -15 9 -12 1 -19 -4 -18 -15z"/>
<path d="M2471 373 c0 -11 3 -13 6 -5 2 6 10 9 15 6 7 -4 8 -2 4 4 -11 18 -26
14 -25 -5z"/>
<path d="M2526 377 c3 -10 9 -15 12 -12 3 3 0 11 -7 18 -10 9 -11 8 -5 -6z"/>
<path d="M2392 350 c-18 -29 -15 -38 4 -12 9 13 14 25 12 27 -2 2 -9 -5 -16
-15z"/>
<path d="M2575 350 c-4 -6 -11 -7 -17 -4 -7 4 -8 2 -4 -5 6 -9 11 -9 22 0 14
11 18 19 10 19 -3 0 -8 -5 -11 -10z"/>
<path d="M2348 332 c9 -10 19 -17 21 -16 6 5 -20 34 -30 34 -5 0 -1 -8 9 -18z"/>
<path d="M2420 338 c0 -11 22 -10 39 1 10 7 7 9 -12 8 -15 -1 -27 -5 -27 -9z"/>
<path d="M2516 338 c3 -5 10 -6 15 -3 13 9 11 12 -6 12 -8 0 -12 -4 -9 -9z"/>
<path d="M2679 333 c-13 -16 -12 -17 4 -4 16 13 21 21 13 21 -2 0 -10 -8 -17
-17z"/>
<path d="M2467 319 c7 -9 10 -19 6 -22 -3 -4 -1 -7 5 -7 17 0 15 16 -5 31 -16
12 -17 12 -6 -2z"/>
<path d="M2384 302 c4 -3 14 -7 22 -8 9 -1 13 0 10 4 -4 3 -14 7 -22 8 -9 1
-13 0 -10 -4z"/>
<path d="M2706 302 c-3 -5 1 -9 9 -9 8 0 12 4 9 9 -3 4 -7 8 -9 8 -2 0 -6 -4
-9 -8z"/>
<path d="M2430 296 c0 -2 8 -10 18 -17 15 -13 16 -12 3 4 -13 16 -21 21 -21
13z"/>
<path d="M1073 1413 c-3 -10 -21 -51 -39 -91 -19 -41 -34 -75 -34 -78 0 -2
-11 -27 -24 -56 -55 -122 -67 -149 -76 -173 l-10 -25 550 0 c303 0 550 2 550
4 0 2 -16 46 -35 97 -20 52 -56 149 -81 217 l-46 122 -374 0 c-348 0 -375 -1
-381 -17z m-26 -138 c0 -8 -4 -12 -9 -9 -5 3 -6 10 -3 15 9 13 12 11 12 -6z
m100 8 c-4 -3 0 -14 8 -23 13 -14 12 -16 -4 -16 -12 0 -17 7 -15 21 3 25 3 25
11 25 3 0 3 -3 0 -7z m360 -8 c0 -8 -4 -12 -9 -9 -5 3 -6 10 -3 15 9 13 12 11
12 -6z m243 5 c0 -5 -5 -10 -11 -10 -5 0 -7 5 -4 10 3 6 8 10 11 10 2 0 4 -4
4 -10z m34 1 c3 -5 -2 -15 -12 -22 -15 -12 -16 -12 -5 2 7 9 10 19 6 22 -3 4
-4 7 0 7 3 0 8 -4 11 -9z m-468 -20 c-10 -11 -13 -22 -8 -25 6 -3 12 -3 15 1
2 5 2 2 1 -4 -2 -7 1 -13 6 -13 6 0 10 6 10 13 0 6 5 4 11 -6 9 -15 12 -16 31
-3 14 10 27 12 38 6 10 -5 20 -6 24 -3 3 3 6 1 6 -5 0 -7 -4 -12 -10 -12 -5 0
-10 -4 -10 -8 0 -14 29 -10 34 5 3 8 10 12 15 8 5 -3 17 5 25 17 9 12 16 17
16 11 0 -6 -7 -16 -15 -23 -8 -7 -15 -18 -15 -24 0 -6 12 2 25 17 14 15 25 23
25 18 0 -6 4 -11 10 -11 5 0 7 8 4 18 -3 9 1 7 8 -6 8 -12 17 -20 21 -16 4 4
2 13 -4 20 -7 9 -6 14 3 20 7 4 10 4 6 -1 -14 -14 12 -35 31 -25 10 5 23 5 31
0 11 -7 11 -11 1 -24 -8 -10 -9 -16 -3 -16 6 0 19 10 29 23 10 13 25 27 33 32
13 8 13 7 0 -10 -14 -17 -13 -18 3 -12 12 5 16 3 11 -5 -5 -7 -2 -9 9 -5 12 4
14 2 10 -9 -5 -14 -3 -14 15 -3 22 14 20 29 -3 29 -19 0 -28 17 -14 26 8 4 9
3 5 -4 -4 -7 -1 -12 6 -12 32 -1 41 -16 24 -46 -8 -16 -15 -22 -16 -14 0 13
-1 13 -10 0 -5 -8 -10 -10 -10 -3 0 9 -7 10 -39 4 -2 -1 2 -7 8 -14 6 -8 7
-18 3 -22 -4 -5 -2 -5 5 -1 6 3 16 -2 22 -11 6 -10 11 -14 11 -9 0 5 -7 18
-17 28 -9 10 -11 18 -5 18 6 0 19 -11 27 -24 9 -13 24 -27 33 -30 13 -5 13 -3
-2 9 -11 8 -17 18 -13 21 4 4 14 1 24 -7 14 -12 16 -12 8 0 -6 11 -4 13 8 8
11 -4 14 -2 10 9 -3 9 0 14 7 12 7 -2 15 3 17 10 3 6 0 12 -7 12 -6 0 -8 -5
-4 -12 5 -8 0 -7 -11 2 -17 13 -18 13 -10 0 8 -13 7 -13 -9 -1 -13 11 -16 11
-14 1 2 -7 -3 -15 -10 -17 -11 -4 -12 -1 -2 16 6 12 15 19 19 16 5 -3 11 2 14
9 3 8 1 17 -6 19 -7 3 -1 5 13 4 14 0 31 -5 38 -10 6 -5 12 -6 12 -2 0 4 6 2
14 -5 8 -6 12 -19 9 -27 -5 -12 -3 -14 7 -8 8 5 11 4 6 -3 -4 -6 -13 -9 -22
-5 -11 4 -12 9 -4 18 7 8 7 16 2 19 -12 7 -24 -22 -15 -36 3 -7 1 -8 -5 -4 -7
4 -12 3 -12 -3 0 -5 5 -13 10 -16 6 -3 10 -1 10 4 0 6 5 11 11 11 6 0 8 -9 3
-22 -6 -22 -6 -22 15 2 12 14 20 21 20 15 -1 -5 3 -23 10 -40 7 -16 14 -34 15
-40 1 -5 7 -20 14 -32 7 -12 12 -26 12 -31 0 -6 -204 -9 -529 -9 l-530 0 15
36 c9 20 18 42 21 49 3 6 9 12 15 12 5 0 8 6 7 13 -4 22 20 69 32 61 7 -4 9 0
5 14 -4 11 -2 23 3 27 7 4 8 -1 4 -12 -6 -16 -5 -16 10 -4 13 11 14 17 5 35
-10 19 -10 20 6 7 9 -8 15 -20 12 -27 -3 -7 -1 -16 3 -19 5 -3 12 2 15 10 3 8
11 14 17 13 6 -2 13 2 16 9 3 7 -3 10 -15 6 -27 -7 -36 12 -14 28 16 13 16 13
2 -5 -14 -18 -13 -19 7 -14 26 7 41 -8 24 -25 -16 -16 -14 -32 2 -18 8 6 18 7
22 3 5 -4 6 0 3 8 -4 11 1 16 16 17 11 0 15 -1 8 -4 -6 -3 -10 -9 -7 -14 4 -5
1 -17 -5 -26 -10 -16 -11 -16 -6 2 6 20 6 20 -9 1 -11 -15 -15 -16 -16 -5 0
11 -2 11 -6 0 -5 -11 -7 -11 -14 0 -7 12 -9 11 -9 -1 0 -13 -1 -13 -10 0 -9
13 -10 13 -10 0 0 -13 -1 -13 -11 0 -9 13 -10 13 -6 0 2 -8 10 -14 17 -12 6 1
10 -2 8 -8 -6 -19 -22 -14 -34 9 -10 19 -12 20 -18 6 -3 -9 -10 -14 -14 -11
-5 3 -9 -1 -9 -9 0 -8 3 -13 5 -10 3 3 15 -3 26 -12 21 -18 21 -18 2 5 -11 12
-14 22 -8 22 7 0 17 -9 24 -19 11 -18 13 -18 25 -3 13 15 13 14 8 -8 -4 -17
-3 -21 3 -11 6 8 12 10 16 3 4 -6 -2 -15 -11 -21 -10 -6 -13 -11 -8 -11 20 0
35 23 25 35 -13 16 -3 42 15 42 8 0 15 -4 15 -9 0 -4 -4 -8 -10 -8 -5 0 -10
-4 -10 -10 0 -18 18 -10 25 10 4 11 11 18 16 14 5 -3 6 -11 3 -17 -4 -7 -3 -9
1 -4 11 10 46 -23 38 -37 -3 -7 -1 -6 7 1 11 10 9 16 -11 32 -27 23 -13 29 17
6 10 -8 23 -15 28 -15 6 0 2 6 -9 13 -10 8 -15 19 -11 25 8 14 -4 43 -16 36
-5 -3 -5 -11 2 -19 8 -9 8 -15 0 -20 -5 -3 -10 1 -10 9 0 9 -5 16 -11 16 -5 0
-8 -4 -4 -9 3 -5 0 -13 -6 -17 -8 -5 -9 -3 -4 6 6 9 4 11 -5 5 -10 -6 -11 -4
-4 6 8 13 10 18 13 38 0 5 8 12 17 15 14 5 15 4 5 -8 -9 -11 -7 -13 14 -13 15
0 25 5 25 14 0 8 -5 11 -12 7 -7 -4 -9 -3 -5 1 15 17 33 12 33 -8 -1 -11 6
-22 14 -25 13 -5 13 -3 1 11 -7 10 -10 17 -5 17 16 -1 44 -48 38 -64 -3 -9
-10 -13 -16 -10 -5 3 -4 11 2 19 10 11 8 13 -9 10 -12 -2 -21 1 -21 8 0 7 -7
3 -15 -7 -15 -20 -11 -41 6 -30 5 3 6 10 3 16 -4 7 -2 8 5 4 6 -4 9 -16 6 -27
-4 -11 -2 -19 5 -19 6 0 8 5 5 10 -4 6 3 8 17 6 13 -3 25 -5 28 -5 3 -1 -2 -6
-10 -12 -13 -9 -13 -10 0 -6 8 2 13 12 12 22 -3 16 -2 17 12 6 14 -12 16 -11
9 5 -6 16 -4 17 8 7 12 -10 18 -10 29 0 10 10 12 9 7 -5 -4 -13 -2 -15 10 -11
11 4 14 2 9 -5 -5 -8 -2 -10 9 -5 13 5 14 7 3 14 -7 5 -11 9 -8 10 3 0 16 2
29 5 20 4 22 2 12 -10 -10 -11 -10 -19 -1 -33 11 -17 11 -17 6 1 -7 20 9 46
27 46 7 0 7 -4 -1 -12 -18 -18 -15 -23 16 -37 22 -9 24 -9 12 1 -13 11 -16 23
-11 43 5 22 -18 29 -31 10 -5 -6 -8 -5 -8 3 0 8 -5 10 -12 5 -17 -10 -39 -13
-33 -4 2 4 -2 8 -10 8 -8 0 -12 -3 -10 -7 2 -4 -8 -6 -23 -5 -15 1 -35 -2 -45
-7 -17 -9 -17 -7 -7 12 7 13 8 20 3 17 -5 -3 -15 4 -23 16 -12 20 -12 21 4 8
9 -8 19 -12 21 -9 3 3 -1 11 -10 18 -14 12 -14 15 1 31 10 11 19 19 22 19 3 0
-3 -9 -12 -19z m99 -1 c10 -11 16 -20 13 -20 -3 0 -13 9 -23 20 -10 11 -16 20
-13 20 3 0 13 -9 23 -20z m408 -3 c3 -7 -3 -13 -14 -13 -13 0 -15 3 -7 13 6 7
12 13 13 13 2 0 5 -6 8 -13z m49 -5 c-7 -2 -9 -9 -6 -14 4 -7 2 -8 -4 -4 -6 4
-9 13 -6 21 4 8 11 12 17 8 8 -5 7 -8 -1 -11z m-504 -17 c-3 -3 -9 2 -12 12
-6 14 -5 15 5 6 7 -7 10 -15 7 -18z m125 3 c-2 -5 -10 -8 -18 -8 -8 0 -16 3
-18 8 -3 4 5 7 18 7 13 0 21 -3 18 -7z"/>
<path d="M1382 1214 c-13 -9 -23 -10 -27 -5 -8 13 -32 4 -32 -12 0 -7 11 -13
24 -13 13 0 23 4 23 8 0 9 29 6 45 -4 6 -4 11 2 11 12 0 26 -19 32 -44 14z"/>
<path d="M1627 1224 c-3 -3 -13 -7 -24 -8 -10 -2 -19 -9 -19 -17 -1 -8 -2 -18
-3 -23 0 -5 -8 -3 -16 4 -12 10 -15 10 -15 -1 0 -11 -2 -11 -10 1 -7 11 -10
11 -10 2 0 -7 -5 -10 -11 -6 -15 9 9 23 33 19 24 -5 23 11 -1 18 -25 6 -48
-20 -45 -51 2 -32 11 -37 19 -12 5 17 10 19 21 9 11 -9 17 -9 29 1 18 15 20
-1 3 -18 -9 -9 -9 -12 0 -12 7 0 12 5 12 10 0 6 8 5 19 -2 11 -7 18 -15 16
-18 -2 -4 2 -7 10 -7 10 0 12 4 5 12 -7 8 -4 17 9 29 18 17 20 16 26 -5 9 -27
23 -8 20 26 -3 19 1 23 18 20 22 -4 22 -4 2 11 -18 14 -22 13 -41 -9 -14 -16
-26 -22 -34 -17 -11 7 -11 11 -1 23 11 14 1 33 -12 21z m-12 -24 c-3 -5 3 -15
14 -22 14 -9 17 -16 10 -24 -12 -14 -42 -7 -33 7 3 5 -1 9 -8 9 -9 0 -9 3 2
10 13 9 13 10 0 10 -13 0 -13 1 0 10 19 12 23 12 15 0z m75 -14 c0 -3 -4 -8
-10 -11 -5 -3 -10 -1 -10 4 0 6 5 11 10 11 6 0 10 -2 10 -4z"/>
<path d="M1827 1207 c-3 -7 3 -13 13 -13 10 0 16 6 13 13 -3 7 -9 13 -13 13
-4 0 -10 -6 -13 -13z"/>
<path d="M1530 1140 c0 -5 5 -10 11 -10 5 0 8 -4 5 -8 -3 -5 1 -9 9 -9 13 0
12 4 -2 19 -18 21 -23 22 -23 8z"/>
<path d="M1655 1140 c-3 -5 -1 -10 4 -10 6 0 11 5 11 10 0 6 -2 10 -4 10 -3 0
-8 -4 -11 -10z"/>
<path d="M1350 1132 c0 -6 9 -12 20 -15 11 -3 20 -3 20 -1 0 2 -9 8 -20 14
-11 6 -20 7 -20 2z"/>
<path d="M1826 1127 c-15 -11 -16 -16 -6 -22 9 -6 11 -4 5 5 -6 10 -3 12 13 8
12 -4 25 -1 29 4 3 6 1 8 -5 4 -5 -3 -12 -1 -14 4 -2 7 -10 6 -22 -3z"/>
<path d="M980 1126 c0 -2 9 -6 20 -9 11 -3 18 -1 14 4 -5 9 -34 13 -34 5z"/>
<path d="M1137 1123 c-8 -8 12 -33 26 -33 6 0 2 7 -9 16 -19 15 -18 15 4 11
12 -3 20 -1 16 4 -6 11 -28 12 -37 2z"/>
<path d="M1416 1117 c3 -10 9 -15 12 -12 3 3 0 11 -7 18 -10 9 -11 8 -5 -6z"/>
<path d="M1699 1128 c-6 -15 -4 -56 2 -52 4 2 6 14 4 25 -3 15 0 19 10 15 8
-3 15 -1 15 4 0 8 -28 15 -31 8z"/>
<path d="M1240 1111 c0 -6 4 -13 10 -16 6 -3 7 1 4 9 -7 18 -14 21 -14 7z"/>
<path d="M1588 1113 c6 -2 9 -10 6 -15 -4 -7 -2 -8 5 -4 13 9 5 26 -12 25 -9
0 -8 -2 1 -6z"/>
<path d="M1019 1093 c-13 -17 -13 -17 6 -3 11 8 22 16 24 17 2 2 0 3 -6 3 -6
0 -17 -8 -24 -17z"/>
<path d="M1219 1108 c-5 -18 -6 -38 -1 -34 7 8 12 36 6 36 -2 0 -4 -1 -5 -2z"/>
<path d="M1290 1099 c0 -5 5 -7 10 -4 6 3 10 8 10 11 0 2 -4 4 -10 4 -5 0 -10
-5 -10 -11z"/>
<path d="M1330 1098 c0 -6 3 -8 7 -5 3 4 11 2 18 -3 8 -7 12 -6 12 3 0 7 -9
14 -19 14 -10 1 -18 -3 -18 -9z"/>
<path d="M1750 1101 c0 -6 4 -13 10 -16 6 -3 7 1 4 9 -7 18 -14 21 -14 7z"/>
<path d="M1410 1079 c0 -5 5 -7 10 -4 6 3 10 8 10 11 0 2 -4 4 -10 4 -5 0 -10
-5 -10 -11z"/>
<path d="M1815 1080 c3 -5 8 -10 11 -10 2 0 4 5 4 10 0 6 -5 10 -11 10 -5 0
-7 -4 -4 -10z"/>
<path d="M1870 1076 c7 -7 13 -7 20 0 6 6 3 10 -10 10 -13 0 -16 -4 -10 -10z"/>
</g>
</svg>
